<?xml version="1.0" encoding="UTF-8"?>
<svg version="1.1" xmlns="http://www.w3.org/2000/svg" width="433" height="433">
<path d="M0 0 C142.89 0 285.78 0 433 0 C433 142.89 433 285.78 433 433 C290.11 433 147.22 433 0 433 C0 290.11 0 147.22 0 0 Z " fill="#D3BB9E" transform="translate(0,0)"/>
<path d="M0 0 C142.89 0 285.78 0 433 0 C433 99.33 433 198.66 433 301 C430.69 299.02 428.38 297.04 426 295 C423.3759363 293.51038 420.84106236 292.15506983 418.125 290.875 C417.41883545 290.5337207 416.7126709 290.19244141 415.98510742 289.84082031 C413.99478443 288.88355992 411.99801627 287.94105979 410 287 C409.14792969 286.58492188 408.29585938 286.16984375 407.41796875 285.7421875 C402.18903222 283.27808754 396.78421601 281.6422668 391.25 279.99609375 C387.42334278 278.82326011 383.69237532 277.45868735 379.94140625 276.06640625 C375.22592897 274.3568109 370.46141037 272.79594505 365.69921875 271.22265625 C362.42050478 270.13898416 359.14746345 269.03984898 355.875 267.9375 C351.89128205 266.60782818 347.89342896 265.3455978 343.875 264.125 C341.5827279 263.41862838 339.29112023 262.71009882 337 262 C336.30036133 261.78617676 335.60072266 261.57235352 334.87988281 261.35205078 C325.6356031 258.50564827 317.3731891 255.36346406 308.96875 250.53515625 C305.19778154 248.58516861 301.47005197 247.58106922 297.35546875 246.61328125 C294.33885274 245.8278605 291.78163501 244.3908175 289 243 C286.02357948 242.20168854 283.02742462 241.57184687 280 241 C279.42118763 231.44316457 280.06856327 223.43678822 283.07202148 214.32226562 C285.05959486 208.20317181 285.96340428 202.2650976 286.640625 195.87890625 C287 193 287 193 288 191 C289.7421875 190.40234375 289.7421875 190.40234375 291.875 189.9375 C294.32745241 189.38999679 296.60711639 188.79762787 299 188 C299.93735485 185.18793545 300.12862569 183.45309907 300.1328125 180.54296875 C300.13474609 179.24456055 300.13474609 179.24456055 300.13671875 177.91992188 C300.13285156 177.01822266 300.12898438 176.11652344 300.125 175.1875 C300.12886719 174.29740234 300.13273437 173.40730469 300.13671875 172.49023438 C300.12984657 167.85494919 299.8075404 163.57201442 299 159 C298.7346495 155.0987159 298.60918395 151.18923189 298.48242188 147.28125 C298.47957528 142.66275333 298.47957528 142.66275333 296 139 C293.67724823 138.59952556 291.34260643 138.2602896 289 138 C289.49737474 132.98407953 290.00160752 127.96924505 290.53515625 122.95703125 C293.16723283 98.90279962 293.16723283 98.90279962 286.375 76.125 C285.84821655 75.08400146 285.84821655 75.08400146 285.31079102 74.02197266 C280.69946031 65.1855577 274.81104552 58.16082463 267 52 C265.9158437 51.06345183 264.83247027 50.12599639 263.75 49.1875 C261.14313307 46.85710129 261.14313307 46.85710129 258 46 C258 45.34 258 44.68 258 44 C256.9171875 43.62875 256.9171875 43.62875 255.8125 43.25 C251.69781243 41.42124997 248.80923501 38.90171902 245.8125 35.5625 C241.96665482 32.05850772 237.70981631 30.13413551 233 28 C232.319375 27.68804688 231.63875 27.37609375 230.9375 27.0546875 C219.96543282 22.18346802 203.29024379 21.80747496 192 26 C172.42796129 34.23481081 153.75821886 47.29303345 143 66 C142.49210938 66.78632812 141.98421875 67.57265625 141.4609375 68.3828125 C132.13611496 83.03610506 131.41659175 97.1036767 134 114 C134.10751986 116.6793948 134.0470821 119.31632049 134 122 C134.66 122 135.32 122 136 122 C136.92037377 127.40719589 137.08441199 132.51322045 137 138 C133.7 138.33 130.4 138.66 127 139 C121.26181227 151.51968231 124.55641295 165.65743997 127.45532227 178.47094727 C127.83566916 180.2369775 128.17407606 182.0123315 128.48022461 183.79272461 C128.63628174 184.6925708 128.79233887 185.59241699 128.953125 186.51953125 C129.08493164 187.33526611 129.21673828 188.15100098 129.35253906 188.99145508 C129.87717288 191.36284365 129.87717288 191.36284365 132.9375 192.8125 C136.62422247 195.44587319 136.48663572 196.14288947 137.25 200.4375 C139.35548082 211.73520198 145.24056082 222.25584338 150.80078125 232.23046875 C152.20965153 235.48417893 152.3050793 237.84762093 152.1875 241.375 C152.14689453 242.96441406 152.14689453 242.96441406 152.10546875 244.5859375 C152.07066406 245.38257813 152.03585938 246.17921875 152 247 C151.2265625 247.09796875 150.453125 247.1959375 149.65625 247.296875 C143.79678695 248.13808504 139.11285286 249.17250023 133.96484375 252.078125 C131.75200988 253.11635322 129.85455877 253.41661258 127.4375 253.75 C122.90438173 254.5371882 119.65762513 256.19178771 115.6875 258.5 C108.33786001 262.71763526 100.56905755 265.47453954 92.5625 268.1875 C91.37293701 268.59097656 90.18337402 268.99445313 88.95776367 269.41015625 C82.17578536 271.67528797 75.36287153 273.83007559 68.53425598 275.94976807 C59.73438418 278.69147794 50.97713957 281.563116 42.22607422 284.45629883 C40.23609429 285.11238819 38.24486905 285.76471196 36.25244141 286.41333008 C21.42671617 291.19771166 21.42671617 291.19771166 7.33105469 297.75805664 C5 299 5 299 0 301 C0 201.67 0 102.34 0 0 Z " fill="#FEFEFE" transform="translate(0,0)"/>
<path d="M0 0 C5.76347594 -0.41167685 8.95448609 0.20497291 13.9609375 3.0078125 C16.06300016 4.03065525 17.7625211 4.39681972 20.0625 4.75 C24.38146808 5.58169318 27.79322698 7.45411547 31.5625 9.625 C38.17358769 13.37324289 44.97720826 15.93641284 52.1875 18.3125 C53.17242432 18.63750488 54.15734863 18.96250977 55.17211914 19.29736328 C61.20209993 21.23157435 67.26361206 22.87380665 73.42407227 24.33911133 C76.25085071 25.0643591 78.93106199 26.04844001 81.640625 27.12890625 C84.88507595 28.32677473 88.19245425 29.30650565 91.5 30.3125 C98.55486009 32.47437984 105.44615066 34.9588144 112.33203125 37.60546875 C115.37202822 38.76125035 118.42110836 39.83029387 121.5 40.875 C132.22746375 44.78622355 143.02868327 49.64102045 151 58 C151.33 58.33 151.66 58.66 152 59 C152.09622036 60.70825688 152.12187628 62.42052114 152.12025452 64.13148499 C152.12232076 65.7960642 152.12232076 65.7960642 152.12442875 67.49427128 C152.12083064 68.72729701 152.11723253 69.96032274 152.11352539 71.23071289 C152.11364593 72.53924193 152.11376646 73.84777098 152.11389065 75.19595242 C152.11411713 78.7470911 152.10830617 82.29819632 152.10128021 85.84932709 C152.09560045 89.17717906 152.09531792 92.5050295 152.09460449 95.83288574 C152.08934964 105.57609495 152.07538859 115.3192979 152.0625 125.0625 C152.041875 146.821875 152.02125 168.58125 152 191 C91.28 191 30.56 191 -32 191 C-30.59921891 183.99609455 -29.04553985 177.30366767 -27.03125 170.4921875 C-25.06522769 163.64843897 -23.57037819 156.71178226 -22.04833984 149.75927734 C-21.06480702 145.27057546 -20.03681959 140.79304304 -19 136.31640625 C-15.0728249 119.24107016 -11.6785762 102.29674256 -9.41015625 84.90795898 C-8.97921223 81.85261718 -8.45284387 78.82320492 -7.9140625 75.78515625 C-7.090869 70.9519353 -6.80401665 66.32713228 -6.75 61.4375 C-6.39397091 49.58717055 -3.44370319 38.21686519 -0.6484375 26.74462891 C0.58820103 21.51033284 1.13573271 16.84142154 1.125 11.4375 C1.12757813 10.13683594 1.13015625 8.83617187 1.1328125 7.49609375 C1.0287834 4.75768065 0.82835366 2.58367451 0 0 Z " fill="#2C2B30" transform="translate(281,242)"/>
<path d="M0 0 C-0.32226562 0.68449219 -0.64453125 1.36898437 -0.9765625 2.07421875 C-4.05408452 10.87217292 -2.09751446 20.68617663 0.36132812 29.37744141 C2.5637427 37.46648511 3.34863909 45.73135722 4.2890625 54.04296875 C4.88551925 59.27116993 5.67209817 64.45620908 6.49121094 69.65356445 C7.18330831 74.20566557 7.7616117 78.76965941 8.34375 83.33691406 C11.1088256 104.94482778 14.44640934 126.47751856 19.45996094 147.68945312 C20.08591094 150.36756833 20.68841353 153.05047373 21.2890625 155.734375 C21.73431618 157.7187632 22.17962797 159.70313836 22.625 161.6875 C22.83125 162.60909912 23.0375 163.53069824 23.25 164.48022461 C24.11330969 168.29259181 25.00841624 172.02762474 26.1484375 175.76953125 C27 179 27 179 27 185 C-31.41 185 -89.82 185 -150 185 C-150.2475 163.364375 -150.495 141.72875 -150.75 119.4375 C-150.85924805 112.6098999 -150.96849609 105.7822998 -151.08105469 98.74780273 C-151.13525391 90.4005127 -151.13525391 90.4005127 -151.14532471 86.49085999 C-151.16375084 83.76183388 -151.20136679 81.03950006 -151.26690674 78.31178284 C-151.36492752 74.17721589 -151.3668737 70.04759056 -151.36230469 65.91186523 C-151.40548199 64.70042815 -151.44865929 63.48899107 -151.49314499 62.24084377 C-151.44188377 58.77385118 -151.27622628 56.22860658 -150 53 C-143.5665287 47.30898721 -134.99646276 44.55669413 -126.93359375 41.921875 C-125.93344742 41.58375793 -124.93330109 41.24564087 -123.90284729 40.89727783 C-120.75173248 39.83578042 -117.59478575 38.79297781 -114.4375 37.75 C-112.32057864 37.03760106 -110.20403891 36.32406705 -108.08789062 35.609375 C-106.03679997 34.92085642 -103.9853784 34.23332271 -101.93359375 33.546875 C-100.99994492 33.23433777 -100.06629608 32.92180054 -99.10435486 32.59979248 C-93.57382946 30.77443951 -88.02155852 29.14308204 -82.38807678 27.66468811 C-79.63656169 26.89884198 -76.98683453 25.92519995 -74.328125 24.88427734 C-71.2423566 23.71222899 -68.12255323 22.65214266 -65 21.58203125 C-46.07653072 15.13217296 -46.07653072 15.13217296 -28.09375 6.4609375 C-24.67428596 4.84619059 -21.73294459 4.46171777 -18 4 C-15.79924007 3.12594513 -15.79924007 3.12594513 -13.9375 2 C-9.3052452 -0.46396532 -5.1340161 -1.77715942 0 0 Z " fill="#2C2B30" transform="translate(150,248)"/>
<path d="M0 0 C-0.34195885 15.8906956 -1.32450016 31.3326829 -4 47 C-4.17015625 48.03785645 -4.3403125 49.07571289 -4.515625 50.14501953 C-7.35232851 67.40585384 -11.01366332 84.39991215 -15.13134766 101.39746094 C-15.97079328 104.87887172 -16.79140044 108.36414031 -17.60546875 111.8515625 C-18.11174503 114.00526339 -18.61824397 116.15891195 -19.125 118.3125 C-19.34212646 119.24666748 -19.55925293 120.18083496 -19.78295898 121.14331055 C-21.86547456 129.89171821 -24.449392 138.32793279 -27 147 C-50.76 147 -74.52 147 -99 147 C-101.89454214 134.84292302 -104.66611913 122.88723977 -107.0390625 110.65234375 C-107.84163941 106.6337614 -108.85497655 102.70337566 -109.9375 98.75 C-113.06364133 86.66554852 -114.61886654 74.19678192 -116.43115234 61.85888672 C-116.80582961 59.31719193 -117.19130729 56.77706219 -117.58837891 54.23876953 C-118.62193037 47.47545004 -119.27964474 40.96505571 -119.125 34.125 C-119.11597656 33.32964844 -119.10695312 32.53429687 -119.09765625 31.71484375 C-119.07470339 29.80975599 -119.03887407 27.90482939 -119 26 C-115.125 26.875 -115.125 26.875 -114 28 C-112.80375 28.103125 -111.6075 28.20625 -110.375 28.3125 C-106.66423472 28.73135181 -104.28353509 29.88890491 -101.1015625 31.88671875 C-87.96409989 38.84615526 -70.04840437 41.56232985 -55.77075195 37.41113281 C-52.47559684 36.36539508 -49.24092898 35.20487123 -46 34 C-45.13375 33.68933594 -44.2675 33.37867188 -43.375 33.05859375 C-37.89730532 30.87729748 -33.41432583 27.57018119 -28.7265625 24.03125 C-25.47167887 21.60640833 -22.10166279 19.4063973 -18.6796875 17.2265625 C-16.85404956 16.0902659 -16.85404956 16.0902659 -16 14 C-15.34 14 -14.68 14 -14 14 C-13.67 13.01 -13.34 12.02 -13 11 C-8.68181818 6.22727273 -8.68181818 6.22727273 -5 5 C-4.67 4.01 -4.34 3.02 -4 2 C-1 0 -1 0 0 0 Z " fill="#F4F8FC" transform="translate(276,286)"/>
<path d="M0 0 C0.495 1.98 0.495 1.98 1 4 C1.804375 4.144375 2.60875 4.28875 3.4375 4.4375 C6 5 6 5 7 6 C7.04063832 7.66617115 7.042721 9.33388095 7 11 C7.66 11 8.32 11 9 11 C10.46670113 16.22512279 11.22577402 20.5814234 11 26 C10.01 26 9.02 26 8 26 C6.32154581 27.53353564 6.32154581 27.53353564 4.8125 29.5 C4.28269531 30.1496875 3.75289062 30.799375 3.20703125 31.46875 C2.80871094 31.9740625 2.41039062 32.479375 2 33 C1 30 1 30 1.9375 27.8125 C2.4634375 26.9153125 2.4634375 26.9153125 3 26 C0.69 26.33 -1.62 26.66 -4 27 C-4 26.34 -4 25.68 -4 25 C-3.01 25 -2.02 25 -1 25 C-1.66 23.35 -2.32 21.7 -3 20 C-4.32 20 -5.64 20 -7 20 C-7.45375 20.969375 -7.9075 21.93875 -8.375 22.9375 C-10 26 -10 26 -12 27 C-17.3495935 27.45528455 -17.3495935 27.45528455 -19.875 25.6875 C-21 24 -21 24 -21 21 C-22.99863756 21.57944932 -22.99863756 21.57944932 -25 23 C-25.33 23.99 -25.66 24.98 -26 26 C-27 29 -27 29 -28.625 30.375 C-32.13625605 31.29901475 -35.3735821 31.1208806 -39 31 C-39.33 29.68 -39.66 28.36 -40 27 C-39.34 27 -38.68 27 -38 27 C-38 26.01 -38 25.02 -38 24 C-37.34 24 -36.68 24 -36 24 C-35.67 23.01 -35.34 22.02 -35 21 C-27.47922335 15.40631578 -17.99900212 14.37329685 -9 13 C-20.89490226 9.5298783 -20.89490226 9.5298783 -33 11 C-32.67 11.99 -32.34 12.98 -32 14 C-33.98 14.99 -35.96 15.98 -38 17 C-38.33 15.68 -38.66 14.36 -39 13 C-40.32 13 -41.64 13 -43 13 C-43.66 13 -44.32 13 -45 13 C-44.67 11.68 -44.34 10.36 -44 9 C-43.34 9 -42.68 9 -42 9 C-41.67 8.01 -41.34 7.02 -41 6 C-40.34 6 -39.68 6 -39 6 C-39 5.34 -39 4.68 -39 4 C-36.07558697 0.90804247 -33.30478939 0.615443 -29.15625 0.4296875 C-28.4446875 0.41164063 -27.733125 0.39359375 -27 0.375 C-2.97321429 -0.49553571 -2.97321429 -0.49553571 0 0 Z " fill="#BF9D77" transform="translate(193,112)"/>
<path d="M0 0 C0.804375 0.886875 1.60875 1.77375 2.4375 2.6875 C4.61987049 5.03774514 5.27918378 5.63472793 8.4375 6.6875 C9.66143475 9.64534231 9.40266243 11.68477245 8.4375 14.6875 C7.1175 14.3575 5.7975 14.0275 4.4375 13.6875 C4.7675 13.0275 5.0975 12.3675 5.4375 11.6875 C4.1175 12.0175 2.7975 12.3475 1.4375 12.6875 C1.4375 13.3475 1.4375 14.0075 1.4375 14.6875 C0.4475 14.6875 -0.5425 14.6875 -1.5625 14.6875 C-1.5625 14.0275 -1.5625 13.3675 -1.5625 12.6875 C-4.2025 12.3575 -6.8425 12.0275 -9.5625 11.6875 C-9.5625 11.0275 -9.5625 10.3675 -9.5625 9.6875 C-16.4925 11.1725 -16.4925 11.1725 -23.5625 12.6875 C-20.91768093 15.98441181 -20.91768093 15.98441181 -17.6015625 15.91015625 C-16.47492188 15.85730469 -15.34828125 15.80445313 -14.1875 15.75 C-9.70643883 15.54912484 -6.63063735 15.72961367 -2.5625 17.6875 C-2.5625 18.3475 -2.5625 19.0075 -2.5625 19.6875 C-1.634375 19.7803125 -1.634375 19.7803125 -0.6875 19.875 C1.4375 20.6875 1.4375 20.6875 2.75 23.125 C3.4375 25.6875 3.4375 25.6875 2.4375 27.6875 C-3.1875 27.9375 -3.1875 27.9375 -6.5625 25.6875 C-6.5625 24.6975 -6.5625 23.7075 -6.5625 22.6875 C-8.5425 22.0275 -10.5225 21.3675 -12.5625 20.6875 C-12.68625 21.30625 -12.81 21.925 -12.9375 22.5625 C-13.5625 24.6875 -13.5625 24.6875 -15.5625 26.6875 C-18.69954316 27.021228 -20.72804166 27.21599028 -23.4375 25.5 C-24.91031139 23.12713721 -24.78473194 21.42836056 -24.5625 18.6875 C-29.0175 20.1725 -29.0175 20.1725 -33.5625 21.6875 C-33.2325 22.6775 -32.9025 23.6675 -32.5625 24.6875 C-33.5525 24.6875 -34.5425 24.6875 -35.5625 24.6875 C-35.2325 23.3675 -34.9025 22.0475 -34.5625 20.6875 C-35.5525 20.3575 -36.5425 20.0275 -37.5625 19.6875 C-36.1875 17.6875 -36.1875 17.6875 -34.5625 15.6875 C-33.9025 15.6875 -33.2425 15.6875 -32.5625 15.6875 C-32.5625 15.0275 -32.5625 14.3675 -32.5625 13.6875 C-33.5525 13.6875 -34.5425 13.6875 -35.5625 13.6875 C-35.8925 12.6975 -36.2225 11.7075 -36.5625 10.6875 C-40.17284757 14.14087594 -40.72035762 16.34117928 -41.125 21.3125 C-41.25068359 22.81683594 -41.25068359 22.81683594 -41.37890625 24.3515625 C-41.43949219 25.12242187 -41.50007812 25.89328125 -41.5625 26.6875 C-43.5625 24.6875 -43.5625 24.6875 -43.7578125 20.9921875 C-43.744509 19.51549892 -43.72064835 18.03887642 -43.6875 16.5625 C-43.67396484 15.43134766 -43.67396484 15.43134766 -43.66015625 14.27734375 C-43.6365687 12.41392746 -43.60069719 10.55067407 -43.5625 8.6875 C-42.9025 8.6875 -42.2425 8.6875 -41.5625 8.6875 C-41.5625 7.6975 -41.5625 6.7075 -41.5625 5.6875 C-39.5825 5.6875 -37.6025 5.6875 -35.5625 5.6875 C-35.500625 5.06875 -35.43875 4.45 -35.375 3.8125 C-34.5625 1.6875 -34.5625 1.6875 -32.125 0.5 C-31.279375 0.231875 -30.43375 -0.03625 -29.5625 -0.3125 C-28.9025 -0.6425 -28.2425 -0.9725 -27.5625 -1.3125 C-26.01686688 -1.46424848 -24.46566367 -1.5615033 -22.9140625 -1.62890625 C-21.52960938 -1.69174805 -21.52960938 -1.69174805 -20.1171875 -1.75585938 C-19.15039062 -1.79517578 -18.18359375 -1.83449219 -17.1875 -1.875 C-16.2284375 -1.91818359 -15.269375 -1.96136719 -14.28125 -2.00585938 C-2.78175438 -2.51036371 -2.78175438 -2.51036371 0 0 Z " fill="#AB9177" transform="translate(262.5625,113.3125)"/>
<path d="M0 0 C0.66 0 1.32 0 2 0 C1.86142578 0.54309814 1.72285156 1.08619629 1.58007812 1.64575195 C0.24125639 7.20769866 -0.32810555 12.48119694 -0.5 18.1875 C-1.41367693 39.61680291 -1.41367693 39.61680291 -6 48 C-6.66 48 -7.32 48 -8 48 C-7.98952637 48.85529297 -7.97905273 49.71058594 -7.96826172 50.59179688 C-7.63455243 81.9689183 -7.63455243 81.9689183 -10 95 C-10.33 95 -10.66 95 -11 95 C-11.33 91.37 -11.66 87.74 -12 84 C-11.34 84 -10.68 84 -10 84 C-10.2165625 83.28714844 -10.433125 82.57429688 -10.65625 81.83984375 C-12.24297813 76.38179283 -13.37896069 71.68441034 -13 66 C-13.66 66 -14.32 66 -15 66 C-18.15494545 47.40835715 -19.77161258 29.72338426 -9.0625 13.25 C-8.04408806 11.83159164 -7.02320195 10.41495686 -6 9 C-4.42420566 6.55583443 -2.85734873 4.10631453 -1.296875 1.65234375 C-0.86890625 1.10707031 -0.4409375 0.56179687 0 0 Z " fill="#A08F7A" transform="translate(149,56)"/>
<path d="M0 0 C0.33 0 0.66 0 1 0 C1.01981934 0.70084717 1.03963867 1.40169434 1.06005859 2.1237793 C1.15556166 5.31205162 1.26513871 8.49969147 1.375 11.6875 C1.4059375 12.79029297 1.436875 13.89308594 1.46875 15.02929688 C1.50742188 16.09599609 1.54609375 17.16269531 1.5859375 18.26171875 C1.63306885 19.73064575 1.63306885 19.73064575 1.68115234 21.22924805 C2.01599181 24.1389671 2.80620584 26.33845891 4 29 C4.94311461 31.72455331 5.48967246 34.1236084 6 37 C4.8125 38.5625 4.8125 38.5625 3 40 C1.96514123 42.31808364 0.9644586 44.65175298 0 47 C-0.66 47.99 -1.32 48.98 -2 50 C-2.16687448 52.41645782 -2.16687448 52.41645782 -2 55 C-1.81792546 58.82356527 -1.78530268 59.67795401 -4 63 C-4.45256811 64.98946384 -4.45256811 64.98946384 -4.6328125 67.16015625 C-4.71660156 67.95357422 -4.80039063 68.74699219 -4.88671875 69.56445312 C-5.00466797 70.80098633 -5.00466797 70.80098633 -5.125 72.0625 C-5.21136719 72.89072266 -5.29773438 73.71894531 -5.38671875 74.57226562 C-5.83764994 78.77805957 -5.83764994 78.77805957 -6 83 C-6.31802943 84.66965451 -6.64984951 86.33678518 -7 88 C-8.65 87.67 -10.3 87.34 -12 87 C-12.11899658 86.39559082 -12.23799316 85.79118164 -12.3605957 85.16845703 C-13.23337137 80.76600534 -14.1317496 76.37349091 -15.10546875 71.9921875 C-20.49128767 47.00160144 -20.49128767 47.00160144 -15.56640625 37.125 C-14 35 -14 35 -12 34 C-9.3276379 33.86584528 -6.67749512 33.95681459 -4 34 C-4 32.35 -4 30.7 -4 29 C-1.88101983 32.49008499 -1.88101983 32.49008499 -2.4375 34.875 C-2.623125 35.57625 -2.80875 36.2775 -3 37 C-2.72949547 39.00946222 -2.40632091 41.01354224 -2 43 C-1.08836994 33.59063545 -0.70647648 24.19381898 -0.4375 14.75 C-0.39417014 13.31118916 -0.35055206 11.87238696 -0.30664062 10.43359375 C-0.20111491 6.95582224 -0.09945226 3.47795112 0 0 Z " fill="#CBA588" transform="translate(141,104)"/>
<path d="M0 0 C7 1 7 1 8.49731445 2.45532227 C8.7830835 3.06947998 9.06885254 3.6836377 9.36328125 4.31640625 C9.69263672 4.99896484 10.02199219 5.68152344 10.36132812 6.38476562 C10.67521484 7.10341797 10.98910156 7.82207031 11.3125 8.5625 C11.64572266 9.25408203 11.97894531 9.94566406 12.32226562 10.65820312 C19.81835606 26.71270421 16.85088332 43.96547411 15 61 C14.34 61 13.68 61 13 61 C13 61.66 13 62.32 13 63 C12.34 63 11.68 63 11 63 C11.15597656 63.69867188 11.31195313 64.39734375 11.47265625 65.1171875 C11.66730469 66.02726562 11.86195313 66.93734375 12.0625 67.875 C12.25972656 68.77992188 12.45695312 69.68484375 12.66015625 70.6171875 C13 73 13 73 12 75 C11.7724985 76.87056791 11.59037189 78.74685958 11.4375 80.625 C11.35371094 81.62789063 11.26992188 82.63078125 11.18359375 83.6640625 C11.12300781 84.43492187 11.06242187 85.20578125 11 86 C5.61499378 76.10750232 6.61508812 63.70089953 6.4375 52.75 C6.39324777 50.32797651 6.34636601 47.90606874 6.29469299 45.48419189 C6.26327719 43.98945043 6.23623133 42.4946079 6.21446228 40.99969482 C6.18125902 32.56030633 6.18125902 32.56030633 3 25 C2.92094936 22.66800612 2.91201231 20.33167378 3 18 C3.66 18 4.32 18 5 18 C4.67 16.35 4.34 14.7 4 13 C2.35 13.66 0.7 14.32 -1 15 C-0.67 10.05 -0.34 5.1 0 0 Z " fill="#636766" transform="translate(276,67)"/>
<path d="M0 0 C1.66965451 -0.31802943 3.33580125 -0.65455622 5 -1 C7.70019103 -1.11787636 10.36316387 -1.18502581 13.0625 -1.1875 C13.76955078 -1.19974609 14.47660156 -1.21199219 15.20507812 -1.22460938 C18.96914521 -1.23521238 21.80796912 -1.09762029 25 1 C25 1.66 25 2.32 25 3 C25.99 2.34 26.98 1.68 28 1 C33.21941946 0.29995952 37.99807559 1.12445017 43.00390625 2.5546875 C46.35482386 3.30225033 49.58023431 3.12213449 53 3 C53.33 2.34 53.66 1.68 54 1 C57.3063908 1.55106513 60.19982126 2.09987871 63 4 C64.23843794 6.95319818 64.04187157 7.87438528 63 11 C60.69 11 58.38 11 56 11 C55.505 10.01 55.505 10.01 55 9 C54.47792969 9.33773437 53.95585937 9.67546875 53.41796875 10.0234375 C47.4157269 13.66052275 41.93638869 15.13133076 35 16 C35 15.01 35 14.02 35 13 C36.65 12.67 38.3 12.34 40 12 C39.505 10.515 39.505 10.515 39 9 C30.30551761 7.74575394 21.70273521 6.74213844 12.92578125 6.24609375 C10.48341403 6.04066099 8.34236095 5.68960018 6 5 C6 5.66 6 6.32 6 7 C6.99 7 7.98 7 9 7 C9 7.99 9 8.98 9 10 C10.32 10.66 11.64 11.32 13 12 C13 12.66 13 13.32 13 14 C8.06962854 12.129546 3.4989971 9.69808422 -1.16015625 7.2421875 C-4.09418486 5.73283152 -4.09418486 5.73283152 -8 6 C-8.99 6.495 -8.99 6.495 -10 7 C-10.144375 6.21625 -10.28875 5.4325 -10.4375 4.625 C-10.87798925 2.03578982 -10.87798925 2.03578982 -12 0 C-7.372786 -2.52393491 -4.8818682 -1.4819957 0 0 Z " fill="#C49B8D" transform="translate(185,200)"/>
<path d="M0 0 C1.2380014 3.57644848 0.74926071 6.33694766 0 10 C1.093125 9.938125 2.18625 9.87625 3.3125 9.8125 C7 10 7 10 8.69848633 11.16650391 C10.47808672 13.67350052 10.43083741 15.46288764 10.51171875 18.5234375 C10.54716797 19.62816406 10.58261719 20.73289063 10.61914062 21.87109375 C10.64169922 23.02738281 10.66425781 24.18367188 10.6875 25.375 C10.73874023 27.05142578 10.73874023 27.05142578 10.79101562 28.76171875 C10.85494456 31.02402035 10.90289743 33.28682852 10.93505859 35.54980469 C10.9796 37.91619245 11.06817169 40.28203991 11.19384766 42.64550781 C11.26224854 44.38719238 11.26224854 44.38719238 11.33203125 46.1640625 C11.38721924 47.21287598 11.44240723 48.26168945 11.49926758 49.34228516 C11 52 11 52 8.6862793 53.85302734 C5.59672809 55.17218681 3.32652989 55.23208348 0 55 C-1.46663603 52.06672795 -0.73411968 49.73911866 -0.375 46.5 C0.00878479 41.88990222 0.12477124 38.40254209 -1.5 34.0625 C-4.07517591 27.03929296 -3.34473777 18.03421331 -1 11 C-1.09406754 8.70546505 -1.09406754 8.70546505 -1.4375 6.3125 C-1.53933594 5.50425781 -1.64117187 4.69601563 -1.74609375 3.86328125 C-1.82988281 3.24839844 -1.91367187 2.63351563 -2 2 C-1.34 2 -0.68 2 0 2 C0 1.34 0 0.68 0 0 Z " fill="#C59A7D" transform="translate(289,128)"/>
<path d="M0 0 C4.57627119 3.15254237 4.57627119 3.15254237 6 6 C8.01669827 7.13350534 8.01669827 7.13350534 10 8 C10 8.66 10 9.32 10 10 C10.66 10 11.32 10 12 10 C14.47103645 12.25300382 15.88449905 13.95349136 16.2578125 17.3359375 C16.25076427 19.57022526 16.17467356 21.77291216 16 24 C15.64292969 23.56042969 15.28585938 23.12085938 14.91796875 22.66796875 C12.29735092 20.38893858 9.5636797 19.50352623 6.3125 18.3125 C5.13300781 17.87550781 3.95351562 17.43851563 2.73828125 16.98828125 C1.83464844 16.66214844 0.93101562 16.33601563 0 16 C0 15.67 0 15.34 0 15 C1.98 15 3.96 15 6 15 C6 14.34 6 13.68 6 13 C5.20335937 12.86722656 4.40671875 12.73445313 3.5859375 12.59765625 C1.4609375 12.24348958 -0.6640625 11.88932292 -2.7890625 11.53515625 C-3.84867188 11.35855469 -4.90828125 11.18195313 -6 11 C-7.55460937 10.72349609 -7.55460937 10.72349609 -9.140625 10.44140625 C-14.08595331 9.67798808 -19.18642601 9.39547534 -24 11 C-23.67 11.99 -23.34 12.98 -23 14 C-24.98 14.99 -26.96 15.98 -29 17 C-29.33 15.68 -29.66 14.36 -30 13 C-31.32 13 -32.64 13 -34 13 C-34.66 13 -35.32 13 -36 13 C-35.67 11.68 -35.34 10.36 -35 9 C-34.34 9 -33.68 9 -33 9 C-32.67 8.01 -32.34 7.02 -32 6 C-31.34 6 -30.68 6 -30 6 C-30 5.34 -30 4.68 -30 4 C-27.07558697 0.90804247 -24.30478939 0.615443 -20.15625 0.4296875 C-19.4446875 0.41164063 -18.733125 0.39359375 -18 0.375 C-0.91920059 -0.24386954 -0.91920059 -0.24386954 0 0 Z " fill="#98866E" transform="translate(184,112)"/>
<path d="M0 0 C-0.47711368 3.62606393 -1.29664622 6.8785392 -2.5 10.3125 C-7.1823675 25.79857398 -5.11477451 44.02515401 -5 60 C-5.66 60 -6.32 60 -7 60 C-9.91980322 53.49680192 -10.78141055 47.12165171 -11.5703125 40.09765625 C-11.66382733 37.13509089 -11.66382733 37.13509089 -13 36 C-14.0943098 23.43107029 -12.18816459 12.69909331 -5 2 C-2 0 -2 0 0 0 Z " fill="#4A4F4C" transform="translate(145,67)"/>
<path d="M0 0 C2.39546038 0.31939472 3.80949349 0.85712012 5.75 2.3125 C7 4 7 4 7 8 C7.99 8 8.98 8 10 8 C10 8.66 10 9.32 10 10 C10.66 10 11.32 10 12 10 C11.71715982 11.77226453 11.42339502 13.542788 11.125 15.3125 C10.96257812 16.29863281 10.80015625 17.28476563 10.6328125 18.30078125 C10 21 10 21 8 24 C7.01 24 6.02 24 5 24 C5.66 29.61 6.32 35.22 7 41 C6.01 41 5.02 41 4 41 C4 40.34 4 39.68 4 39 C3.34 39 2.68 39 2 39 C-0.22835037 26.2930973 -1.78771721 13.92159185 -1 1 C-0.67 0.67 -0.34 0.34 0 0 Z " fill="#CFA381" transform="translate(127,142)"/>
<path d="M0 0 C7 1 7 1 9 3.4375 C9.33 4.283125 9.66 5.12875 10 6 C9.67 6.66 9.34 7.32 9 8 C8.01 8 7.02 8 6 8 C6.33 8.99 6.66 9.98 7 11 C7.2295907 14.06120932 7.38063853 17.1210801 7.5234375 20.1875 C8.05652248 23.33357527 8.72453421 23.93466957 11 26 C11.40794926 30.5690317 10.95266914 34.45362522 10.01953125 38.92578125 C8.79294831 45.500881 8.55487394 52.01342745 8.375 58.6875 C8.31699219 60.47317383 8.31699219 60.47317383 8.2578125 62.29492188 C8.16459005 65.19647053 8.07878652 68.09802966 8 71 C7.67 71 7.34 71 7 71 C6.97494385 69.94611084 6.9498877 68.89222168 6.92407227 67.80639648 C6.82943709 63.87204179 6.72935661 59.93784075 6.62768555 56.00366211 C6.5845478 54.30545665 6.54285916 52.60721371 6.50268555 50.90893555 C6.44446656 48.45870702 6.38092497 46.00866353 6.31640625 43.55859375 C6.29969376 42.80726669 6.28298126 42.05593964 6.26576233 41.28184509 C6.19514034 32.71855486 6.19514034 32.71855486 3 25 C2.92094936 22.66800612 2.91201231 20.33167378 3 18 C3.66 18 4.32 18 5 18 C4.67 16.35 4.34 14.7 4 13 C2.35 13.66 0.7 14.32 -1 15 C-0.67 10.05 -0.34 5.1 0 0 Z " fill="#918476" transform="translate(276,67)"/>
<path d="M0 0 C2.16874252 0.50603992 3.99967627 0.99983813 6 2 C6.33 2.99 6.66 3.98 7 5 C9.14921378 6.26757009 9.14921378 6.26757009 12.5 5.9375 C16 6 16 6 18 8 C18 8.66 18 9.32 18 10 C13.71 9.34 9.42 8.68 5 8 C4.34 9.32 3.68 10.64 3 12 C3.99 12.33 4.98 12.66 6 13 C6 13.66 6 14.32 6 15 C6.66 15.33 7.32 15.66 8 16 C7 17 7 17 4.125 17.25 C-4.17228688 17.1136996 -11.8304735 13.92294846 -19 10 C-18.67 9.01 -18.34 8.02 -18 7 C-13.05 8.32 -8.1 9.64 -3 11 C-3.33 9.68 -3.66 8.36 -4 7 C-5.65 7 -7.3 7 -9 7 C-9 6.67 -9 6.34 -9 6 C-7.88625 5.7525 -6.7725 5.505 -5.625 5.25 C-1.95384802 4.38994661 -1.95384802 4.38994661 -0.5625 1.875 C-0.376875 1.25625 -0.19125 0.6375 0 0 Z " fill="#C9A58D" transform="translate(250,134)"/>
<path d="M0 0 C4.45626001 0.70895046 7.28017565 3.72745505 10.16015625 7.078125 C12.75600454 9.29767096 15.18655994 8.90481319 18.47265625 8.79296875 C23.04156338 8.07981172 25.93856675 5.20732129 29.1875 2.125 C31.75 0.4375 31.75 0.4375 35.5625 0.6875 C36.614375 0.935 37.66625 1.1825 38.75 1.4375 C39.0390625 3.7265625 39.0390625 3.7265625 38.75 6.4375 C35.82078182 9.15831531 32.41942491 10.88312939 28.75 12.4375 C25.8125 12.3125 25.8125 12.3125 22.75 11.4375 C19.90747574 11.41696153 17.07898733 11.4994299 14.23828125 11.59765625 C11.75 11.4375 11.75 11.4375 8.75 9.4375 C6.70294775 8.84010055 4.63766892 8.30340017 2.5625 7.8125 C0.93248047 7.42191406 0.93248047 7.42191406 -0.73046875 7.0234375 C-1.56191406 6.83007812 -2.39335937 6.63671875 -3.25 6.4375 C-3.875 4.5625 -3.875 4.5625 -4.25 2.4375 C-2.25 0.4375 -2.25 0.4375 0 0 Z " fill="#C49F86" transform="translate(196.25,173.5625)"/>
<path d="M0 0 C2.6875 -0.1875 2.6875 -0.1875 6 1 C13.13949276 9.56001199 11.45768044 21.61573925 11 32 C10.34 32 9.68 32 9 32 C8.67 32.66 8.34 33.32 8 34 C8 33.34 8 32.68 8 32 C7.34 32 6.68 32 6 32 C5.67 27.05 5.34 22.1 5 17 C4.01 16.67 3.02 16.34 2 16 C1.93941406 15.18015625 1.87882812 14.3603125 1.81640625 13.515625 C1.73261719 12.43796875 1.64882813 11.3603125 1.5625 10.25 C1.48128906 9.18265625 1.40007812 8.1153125 1.31640625 7.015625 C1.05909227 4.56320038 0.68187782 2.36078709 0 0 Z " fill="#555A57" transform="translate(281,74)"/>
<path d="M0 0 C1.66360078 1.00509214 3.32874278 2.00769103 5 3 C1.8035914 4.06546953 -0.65747276 4.07427838 -4 4 C-4.185625 3.360625 -4.37125 2.72125 -4.5625 2.0625 C-5.94246056 -0.42126213 -5.94246056 -0.42126213 -9.625 -0.75 C-10.73875 -0.8325 -11.8525 -0.915 -13 -1 C-13.495 -2.485 -13.495 -2.485 -14 -4 C-14.969375 -3.814375 -15.93875 -3.62875 -16.9375 -3.4375 C-19.81191267 -3.02358457 -22.31107765 -3.0595759 -25.1875 -3.4375 C-35.0297018 -4.70530905 -44.29556577 -3.92712169 -54 -2 C-52.55311524 -4.89376952 -50.29059184 -5.21327228 -47.3984375 -6.31640625 C-31.43015869 -10.86762578 -13.66091912 -9.35969847 0 0 Z " fill="#D5CDC4" transform="translate(240,31)"/>
<path d="M0 0 C2.61555877 -0.02021297 5.21608152 -0.12325268 7.828125 -0.2578125 C8.90320313 -0.13019531 8.90320313 -0.13019531 10 0 C10.66 0.99 11.32 1.98 12 3 C7.26910592 8.47787735 -0.18690977 9.08905757 -7 10 C-9.6965498 10.13525015 -12.29848801 10.10194385 -15 10 C-14.14980974 5.93797986 -12.97414157 3.59626247 -9.75 1.0625 C-6.104879 -1.28774229 -4.23732502 -1.08010245 0 0 Z " fill="#816F5C" transform="translate(244,114)"/>
<path d="M0 0 C-0.47711368 3.62606393 -1.29664622 6.8785392 -2.5 10.3125 C-5.87597723 21.23090441 -5.19601425 33.69651175 -5 45 C-5.33 45 -5.66 45 -6 45 C-7.17293889 38.6221448 -8.29530838 32.49678438 -8 26 C-8.66 25.67 -9.32 25.34 -10 25 C-9.525625 24.2575 -9.05125 23.515 -8.5625 22.75 C-7.22130673 20.38949985 -6.487688 18.63351523 -6 16 C-6.66 16 -7.32 16 -8 16 C-8.12375 16.639375 -8.2475 17.27875 -8.375 17.9375 C-8.58125 18.618125 -8.7875 19.29875 -9 20 C-9.66 20.33 -10.32 20.66 -11 21 C-11.4683265 23.58605332 -11.4683265 23.58605332 -11.625 26.5625 C-11.69976562 27.57441406 -11.77453125 28.58632812 -11.8515625 29.62890625 C-11.90054688 30.41136719 -11.94953125 31.19382812 -12 32 C-12.33 32 -12.66 32 -13 32 C-13.89854834 20.91790375 -11.26201004 11.25618451 -5 2 C-2 0 -2 0 0 0 Z " fill="#61635B" transform="translate(145,67)"/>
<path d="M0 0 C3.25737597 0.51273511 6.51041302 0.91855564 9.78515625 1.29882812 C14.81805969 1.90902984 14.81805969 1.90902984 17 3 C17 3.66 17 4.32 17 5 C13.7 5 10.4 5 7 5 C7 5.66 7 6.32 7 7 C7.99 7 8.98 7 10 7 C10 7.99 10 8.98 10 10 C11.32 10.66 12.64 11.32 14 12 C14 12.66 14 13.32 14 14 C9.06962854 12.129546 4.4989971 9.69808422 -0.16015625 7.2421875 C-3.09418486 5.73283152 -3.09418486 5.73283152 -7 6 C-7.99 6.495 -7.99 6.495 -9 7 C-9.144375 6.21625 -9.28875 5.4325 -9.4375 4.625 C-9.87798925 2.03578982 -9.87798925 2.03578982 -11 0 C-6.50406728 -2.38019968 -4.6708391 -1.5845518 0 0 Z " fill="#BD9D85" transform="translate(184,200)"/>
<path d="M0 0 C1.125 1.75 1.125 1.75 2 4 C1.3514353 5.34223174 0.68233136 6.67461472 0 8 C-0.44596774 10.08279575 -0.44596774 10.08279575 -0.6328125 12.2578125 C-0.71660156 13.04800781 -0.80039063 13.83820313 -0.88671875 14.65234375 C-1.00466797 15.87630859 -1.00466797 15.87630859 -1.125 17.125 C-1.21136719 17.94871094 -1.29773438 18.77242187 -1.38671875 19.62109375 C-1.83765567 23.8024324 -1.83765567 23.8024324 -2 28 C-2.31802943 29.66965451 -2.64984951 31.33678518 -3 33 C-4.65 32.67 -6.3 32.34 -8 32 C-9.94183957 23.40632701 -10.98074847 14.73953968 -12 6 C-11.01 6 -10.02 6 -9 6 C-8.08342019 11.38490641 -7.88861841 16.54230189 -8 22 C-7.34 22 -6.68 22 -6 22 C-6 22.66 -6 23.32 -6 24 C-5.01 24 -4.02 24 -3 24 C-3.33 23.05125 -3.66 22.1025 -4 21.125 C-5.3644458 16.44552744 -5.17499341 11.83176241 -5 7 C-4.01 6.67 -3.02 6.34 -2 6 C-0.77479736 2.99152582 -0.77479736 2.99152582 0 0 Z " fill="#D1AE91" transform="translate(137,159)"/>
<path d="M0 0 C1.65 0 3.3 0 5 0 C5.33 1.32 5.66 2.64 6 4 C5.40832031 4.18175781 4.81664062 4.36351562 4.20703125 4.55078125 C-0.78879187 6.10721192 -0.78879187 6.10721192 -5.375 8.5625 C-9.60347239 10.87809202 -14.27045461 11.29595209 -19 12 C-19 11.01 -19 10.02 -19 9 C-17.35 8.67 -15.7 8.34 -14 8 C-14.33 7.01 -14.66 6.02 -15 5 C-17.01508358 4.26676204 -17.01508358 4.26676204 -19 4 C-19 3.34 -19 2.68 -19 2 C-12.73 2 -6.46 2 0 2 C0 1.34 0 0.68 0 0 Z " fill="#C7988B" transform="translate(239,204)"/>
<path d="M0 0 C4.29 0 8.58 0 13 0 C13 0.66 13 1.32 13 2 C15.90600261 3.25664978 17.79604584 4 21 4 C20.01 3.01 19.02 2.02 18 1 C21.15473719 1.35052635 22.8233534 1.86519076 25.375 3.8125 C27 6 27 6 26.75 8.25 C26.5025 8.8275 26.255 9.405 26 10 C20.375 10.25 20.375 10.25 17 8 C17 7.01 17 6.02 17 5 C15.02 4.34 13.04 3.68 11 3 C10.855625 3.639375 10.71125 4.27875 10.5625 4.9375 C10 7 10 7 9 8 C7.00041636 8.04080783 4.99954746 8.04254356 3 8 C2.34 6.35 1.68 4.7 1 3 C2.65 2.67 4.3 2.34 6 2 C4.02 2 2.04 2 0 2 C0 1.34 0 0.68 0 0 Z " fill="#9C795F" transform="translate(239,131)"/>
<path d="M0 0 C1.98 0.66 3.96 1.32 6 2 C6.18255458 23.0415223 6.18255458 23.0415223 5.75 31.25 C5.68039062 32.58804688 5.68039062 32.58804688 5.609375 33.953125 C5 36 5 36 2.953125 37.296875 C1.98632812 37.64492187 1.98632812 37.64492187 1 38 C1.16298584 37.47438477 1.32597168 36.94876953 1.49389648 36.40722656 C2.12901421 33.38635788 2.11169006 30.57181318 2.09765625 27.484375 C2.09443359 26.23398438 2.09121094 24.98359375 2.08789062 23.6953125 C2.07951172 22.39335937 2.07113281 21.09140625 2.0625 19.75 C2.05798828 18.43257812 2.05347656 17.11515625 2.04882812 15.7578125 C2.03704316 12.50516259 2.02059011 9.25260416 2 6 C0.35 6.33 -1.3 6.66 -3 7 C-2.67 6.01 -2.34 5.02 -2 4 C-1.34 4 -0.68 4 0 4 C0 2.68 0 1.36 0 0 Z " fill="#CA9A7B" transform="translate(293,141)"/>
<path d="M0 0 C-0.99 0.66 -1.98 1.32 -3 2 C-0.9250087 2 1.10612512 1.86093503 3.17578125 1.7109375 C4.41811523 1.62972656 4.41811523 1.62972656 5.68554688 1.546875 C7.4257101 1.43302045 9.16534363 1.31073145 10.90429688 1.1796875 C15.44771319 0.8981435 18.86707388 0.76736775 23 3 C22.34 3.66 21.68 4.32 21 5 C22.32 6.32 23.64 7.64 25 9 C21.05879291 8.43697042 18.2491277 7.3208055 15 5 C15 4.34 15 3.68 15 3 C10.71 3 6.42 3 2 3 C2 3.66 2 4.32 2 5 C3.98 5 5.96 5 8 5 C7.67 5.66 7.34 6.32 7 7 C5.68 6.67 4.36 6.34 3 6 C3.63979849 8.03241727 3.63979849 8.03241727 5 10 C7.55519921 10.81171228 7.55519921 10.81171228 10 11 C10 11.33 10 11.66 10 12 C4.57142857 12.36190476 4.57142857 12.36190476 2.125 10.8125 C0.65218861 8.43963721 0.77776806 6.74086056 1 4 C-3.455 5.485 -3.455 5.485 -8 7 C-7.67 7.99 -7.34 8.98 -7 10 C-7.99 10 -8.98 10 -10 10 C-9.67 8.68 -9.34 7.36 -9 6 C-9.99 5.67 -10.98 5.34 -12 5 C-9.56521739 1.22608696 -9.56521739 1.22608696 -7.125 0.25 C-4.73068929 -0.03168361 -2.40866079 -0.06690724 0 0 Z " fill="#AE8B72" transform="translate(237,128)"/>
<path d="M0 0 C0.79921875 0.00902344 1.5984375 0.01804688 2.421875 0.02734375 C3.02515625 0.03894531 3.6284375 0.05054688 4.25 0.0625 C4.54296875 6.1171875 4.54296875 6.1171875 4.25 8.0625 C0.78076119 10.37532587 -0.67205575 10.48728586 -4.75 10.0625 C-6.625 8.75 -6.625 8.75 -7.75 7.0625 C-7.75 6.0725 -7.75 5.0825 -7.75 4.0625 C-10.37901288 5.58456009 -12.59365964 6.90615964 -14.75 9.0625 C-16.875 8.6875 -16.875 8.6875 -18.75 8.0625 C-17.17210402 6.90919053 -15.5874518 5.76512073 -14 4.625 C-12.67742187 3.66787109 -12.67742187 3.66787109 -11.328125 2.69140625 C-7.46425679 0.25014406 -4.50976395 -0.06632006 0 0 Z " fill="#62564C" transform="translate(179.75,128.9375)"/>
<path d="M0 0 C0.33 0.66 0.66 1.32 1 2 C0.34 2 -0.32 2 -1 2 C-0.67 2.66 -0.34 3.32 0 4 C1.65 3.67 3.3 3.34 5 3 C5 2.34 5 1.68 5 1 C10.44567686 2.02862785 15.11817117 3.24614784 20 6 C16.04102831 7.31965723 12.131092 7 8 7 C5.64470719 7.41731018 5.64470719 7.41731018 4 8 C4.33 8.99 4.66 9.98 5 11 C3.02 11.99 1.04 12.98 -1 14 C-1.33 12.68 -1.66 11.36 -2 10 C-3.32 10 -4.64 10 -6 10 C-6.66 10 -7.32 10 -8 10 C-7.67 8.68 -7.34 7.36 -7 6 C-6.34 6 -5.68 6 -5 6 C-4.67 5.01 -4.34 4.02 -4 3 C-3.34 3 -2.68 3 -2 3 C-2 2.34 -2 1.68 -2 1 C-1.34 0.67 -0.68 0.34 0 0 Z " fill="#A58B71" transform="translate(156,115)"/>
<path d="M0 0 C3.25061904 0.43341587 4.95502089 1.44377611 7 4 C7 4.66 7 5.32 7 6 C6.360625 6.12375 5.72125 6.2475 5.0625 6.375 C4.0415625 6.684375 4.0415625 6.684375 3 7 C0.02389934 12.95220132 2.17794913 20.9264971 4 27 C4.54669156 28.93608816 5.08813102 30.87366511 5.625 32.8125 C5.88539063 33.72644531 6.14578125 34.64039063 6.4140625 35.58203125 C7 38 7 38 7 41 C6.01 41 5.02 41 4 41 C4 40.34 4 39.68 4 39 C3.34 39 2.68 39 2 39 C-0.22835037 26.2930973 -1.78771721 13.92159185 -1 1 C-0.67 0.67 -0.34 0.34 0 0 Z " fill="#C2825F" transform="translate(127,142)"/>
<path d="M0 0 C1.76217671 1.47147139 3.32161741 2.85130839 4.73046875 4.6640625 C4.73046875 5.3240625 4.73046875 5.9840625 4.73046875 6.6640625 C-4.21838889 7.36685237 -10.41058909 5.9957629 -18.26953125 1.6640625 C-18.26953125 0.6740625 -18.26953125 -0.3159375 -18.26953125 -1.3359375 C-12.219415 -2.74471908 -5.52631375 -3.25301085 0 0 Z " fill="#5A534A" transform="translate(185.26953125,116.3359375)"/>
<path d="M0 0 C0.33 0 0.66 0 1 0 C1.01981934 0.70084717 1.03963867 1.40169434 1.06005859 2.1237793 C1.15556166 5.31205162 1.26513871 8.49969147 1.375 11.6875 C1.4059375 12.79029297 1.436875 13.89308594 1.46875 15.02929688 C1.50742188 16.09599609 1.54609375 17.16269531 1.5859375 18.26171875 C1.6173584 19.24100342 1.6487793 20.22028809 1.68115234 21.22924805 C2.01599181 24.1389671 2.80620584 26.33845891 4 29 C4.94311461 31.72455331 5.48967246 34.1236084 6 37 C4.8125 38.5625 4.8125 38.5625 3 40 C1.99515117 42.33124929 0.99477753 44.66443537 0 47 C-0.99 47.495 -0.99 47.495 -2 48 C-1.93941406 47.13246094 -1.87882813 46.26492187 -1.81640625 45.37109375 C-0.84114514 30.26204857 -0.44602983 15.13202794 0 0 Z " fill="#B4A491" transform="translate(141,104)"/>
<path d="M0 0 C7.26094089 7.26094089 8 27.00757168 8 37 C6.02 37 4.04 37 2 37 C2.10699219 36.35417969 2.21398437 35.70835937 2.32421875 35.04296875 C3.31476746 27.2570429 2.50761276 20.33012677 1.11791992 12.67651367 C0.34036438 8.38104229 -0.17647745 4.39075904 0 0 Z " fill="#1A191E" transform="translate(17,396)"/>
<path d="M0 0 C1.2380014 3.57644848 0.74926071 6.33694766 0 10 C1.093125 9.938125 2.18625 9.87625 3.3125 9.8125 C7 10 7 10 8.9375 11.5 C9.288125 11.995 9.63875 12.49 10 13 C9.67 13.66 9.34 14.32 9 15 C7.68 14.67 6.36 14.34 5 14 C4.67 14.99 4.34 15.98 4 17 C3.34 17 2.68 17 2 17 C2.33 17.66 2.66 18.32 3 19 C3.99 19 4.98 19 6 19 C5.67 19.99 5.34 20.98 5 22 C3 22 1 22 -1 22 C-1 25.63 -1 29.26 -1 33 C-3.16060203 28.67879593 -3.10087766 26.0468831 -2.6875 21.4375 C-2.63916016 20.76525391 -2.59082031 20.09300781 -2.54101562 19.40039062 C-2.3068033 16.41492471 -1.95082971 13.85248914 -1 11 C-1.09406754 8.70546505 -1.09406754 8.70546505 -1.4375 6.3125 C-1.53933594 5.50425781 -1.64117187 4.69601563 -1.74609375 3.86328125 C-1.82988281 3.24839844 -1.91367187 2.63351563 -2 2 C-1.34 2 -0.68 2 0 2 C0 1.34 0 0.68 0 0 Z " fill="#C79E81" transform="translate(289,128)"/>
<path d="M0 0 C1.171875 1.5625 2.34375 3.125 3.515625 4.6875 C2.85433594 4.35878906 2.19304687 4.03007813 1.51171875 3.69140625 C-2.18962098 2.45119202 -5.57411574 2.50710208 -9.421875 2.625 C-16.91457663 2.81389164 -16.91457663 2.81389164 -20.70703125 1.97265625 C-23.5486549 1.39332308 -23.5486549 1.39332308 -25.828125 3.15625 C-26.5396875 3.8265625 -27.25125 4.496875 -27.984375 5.1875 C-32.08854167 8.69444444 -32.08854167 8.69444444 -36.046875 8.625 C-36.85125 8.315625 -37.655625 8.00625 -38.484375 7.6875 C-38.484375 8.3475 -38.484375 9.0075 -38.484375 9.6875 C-39.144375 9.6875 -39.804375 9.6875 -40.484375 9.6875 C-40.484375 8.6975 -40.484375 7.7075 -40.484375 6.6875 C-38.504375 6.6875 -36.524375 6.6875 -34.484375 6.6875 C-34.4225 6.06875 -34.360625 5.45 -34.296875 4.8125 C-33.484375 2.6875 -33.484375 2.6875 -31.046875 1.5 C-30.20125 1.231875 -29.355625 0.96375 -28.484375 0.6875 C-27.824375 0.3575 -27.164375 0.0275 -26.484375 -0.3125 C-24.93874188 -0.46424848 -23.38753867 -0.5615033 -21.8359375 -0.62890625 C-20.45148438 -0.69174805 -20.45148438 -0.69174805 -19.0390625 -0.75585938 C-18.07226562 -0.79517578 -17.10546875 -0.83449219 -16.109375 -0.875 C-15.1503125 -0.91818359 -14.19125 -0.96136719 -13.203125 -1.00585938 C-1.70793576 -1.51017478 -1.70793576 -1.51017478 0 0 Z " fill="#B69E82" transform="translate(261.484375,112.3125)"/>
<path d="M0 0 C0 0.66 0 1.32 0 2 C0.66 2.33 1.32 2.66 2 3 C0.02 4.32 -1.96 5.64 -4 7 C-2.35 6.67 -0.7 6.34 1 6 C0.51963048 10.56351039 0.51963048 10.56351039 -1.5625 12.3125 C-5.10657174 13.31210998 -8.32218719 13.12259376 -12 13 C-12.33 11.68 -12.66 10.36 -13 9 C-12.34 9 -11.68 9 -11 9 C-11 8.01 -11 7.02 -11 6 C-10.34 6 -9.68 6 -9 6 C-8.67 5.01 -8.34 4.02 -8 3 C-5.07920195 0.92469613 -3.62453269 0 0 0 Z " fill="#AB8766" transform="translate(166,130)"/>
<path d="M0 0 C6.63000678 0.74316197 13.21888432 0.67528262 19.8828125 0.62890625 C21.12546875 0.62439453 22.368125 0.61988281 23.6484375 0.61523438 C26.68494752 0.60355549 29.72135338 0.58717765 32.7578125 0.56640625 C32.7578125 1.55640625 32.7578125 2.54640625 32.7578125 3.56640625 C27.47181551 4.44041369 22.36273547 4.75961208 17.0078125 4.75390625 C16.22011475 4.75310059 15.43241699 4.75229492 14.62084961 4.75146484 C-0.19691001 4.59659124 -0.19691001 4.59659124 -6.2421875 0.56640625 C-3.77381516 -0.66777992 -2.71452904 -0.36259357 0 0 Z " fill="#A59989" transform="translate(191.2421875,256.43359375)"/>
<path d="M0 0 C0.70705078 -0.01224609 1.41410156 -0.02449219 2.14257812 -0.03710938 C5.90664521 -0.04771238 8.74546912 0.08987971 11.9375 2.1875 C11.9375 2.8475 11.9375 3.5075 11.9375 4.1875 C12.9275 3.5275 13.9175 2.8675 14.9375 2.1875 C17.625 2.0625 17.625 2.0625 19.9375 2.1875 C19.6075 3.5075 19.2775 4.8275 18.9375 6.1875 C11.5819412 6.4987854 5.28327189 6.34721908 -1.6953125 3.921875 C-5.44727174 2.75790085 -9.15613482 2.50252945 -13.0625 2.1875 C-13.0625 1.8575 -13.0625 1.5275 -13.0625 1.1875 C-8.71169047 0.12321195 -4.45434516 0.00408281 0 0 Z " fill="#CDA697" transform="translate(198.0625,198.8125)"/>
<path d="M0 0 C0.99 0.495 0.99 0.495 2 1 C2.42740535 3.43383602 2.75055269 5.79710144 3 8.25 C3.47365879 12.80238728 4.19750147 16.76412845 6 21 C6 21.99 6 22.98 6 24 C6.66 24 7.32 24 8 24 C8 20.37 8 16.74 8 13 C8.33 13 8.66 13 9 13 C9.23209701 24.86273607 8.81242503 36.26778439 7 48 C6.67 48 6.34 48 6 48 C5.67 44.37 5.34 40.74 5 37 C5.66 37 6.32 37 7 37 C6.7834375 36.28714844 6.566875 35.57429688 6.34375 34.83984375 C4.75702187 29.38179283 3.62103931 24.68441034 4 19 C3.34 19 2.68 19 2 19 C1.34 12.73 0.68 6.46 0 0 Z " fill="#6F706B" transform="translate(132,103)"/>
<path d="M0 0 C2.43914492 2.43914492 2.28662523 3.21446431 2.4140625 6.5703125 C2.45273437 7.46621094 2.49140625 8.36210937 2.53125 9.28515625 C2.5621875 10.22230469 2.593125 11.15945312 2.625 12.125 C2.66367187 13.06988281 2.70234375 14.01476562 2.7421875 14.98828125 C2.83661346 17.32532375 2.92218394 19.66235501 3 22 C2.34 22 1.68 22 1 22 C0.3503125 20.1746875 0.3503125 20.1746875 -0.3125 18.3125 C-1.26444264 15.7286557 -2.16050021 13.75627747 -3.6875 11.4375 C-5.43026833 8.20093024 -5.21270132 5.61592247 -5 2 C-3.35 1.34 -1.7 0.68 0 0 Z " fill="#D4A887" transform="translate(293,148)"/>
<path d="M0 0 C7.68395543 -0.2137731 14.56340812 -0.01670288 22 2 C21.01 2.495 21.01 2.495 20 3 C19.67 3.99 19.34 4.98 19 6 C12.59646678 6.2361959 7.15370839 5.823321 1 4 C0.67 2.68 0.34 1.36 0 0 Z " fill="#DCBAB1" transform="translate(199,208)"/>
<path d="M0 0 C0.66 0.33 1.32 0.66 2 1 C1.34 1.515625 0.68 2.03125 0 2.5625 C-2.36681689 4.48553873 -4.61597958 6.45633367 -6.875 8.5 C-12.63650719 13.54131879 -18.53958563 16.35366885 -25.66796875 19.0703125 C-27.98791606 19.95591389 -27.98791606 19.95591389 -30.0859375 21.05078125 C-36.91689543 24.43837876 -45.48560008 25.11927619 -53 25 C-55.390625 24.015625 -55.390625 24.015625 -57 23 C-56.175 22.98582031 -55.35 22.97164063 -54.5 22.95703125 C-44.61482165 22.54882634 -36.25276535 20.35013918 -27 17 C-25.700625 16.5359375 -25.700625 16.5359375 -24.375 16.0625 C-17.86913947 13.46015579 -12.54438539 9.21039793 -7 5 C-5.60832006 3.99422784 -4.21317554 2.99320629 -2.8125 2 C-1.4203125 1.01 -1.4203125 1.01 0 0 Z " fill="#EBE6DA" transform="translate(257,303)"/>
<path d="M0 0 C7 7 7 7 7.1953125 9.1640625 C7.17210937 9.97617188 7.14890625 10.78828125 7.125 11.625 C7.10695312 12.44226563 7.08890625 13.25953125 7.0703125 14.1015625 C7.04710937 14.72804687 7.02390625 15.35453125 7 16 C6.34 16.33 5.68 16.66 5 17 C5 16.01 5 15.02 5 14 C1.0493366 13.41160332 -0.96586289 13.34313767 -4.3984375 15.5234375 C-5.98163915 16.77872683 -7.54406275 18.06077635 -9.08203125 19.37109375 C-11.95314796 21.80949634 -13.73821957 22.17710777 -17.4375 22.25 C-18.21996094 22.27578125 -19.00242188 22.3015625 -19.80859375 22.328125 C-22.47931509 21.92823089 -23.31977439 21.05300878 -25 19 C-23.78763672 19.06960937 -23.78763672 19.06960937 -22.55078125 19.140625 C-15.8869752 19.53537401 -15.8869752 19.53537401 -9.9375 17 C-9.298125 16.34 -8.65875 15.68 -8 15 C-7.01 15 -6.02 15 -5 15 C-5 14.34 -5 13.68 -5 13 C-2.04335481 11.5216774 0.74229737 11.93967217 4 12 C2.87302957 7.03088634 2.87302957 7.03088634 0 3 C0 2.01 0 1.02 0 0 Z " fill="#CEAE91" transform="translate(230,161)"/>
<path d="M0 0 C4.03920585 0.23748805 8.0775671 0.48604108 12.11547852 0.74462891 C13.48768853 0.83096803 14.86008859 0.91434206 16.23266602 0.99462891 C18.21158067 1.11090898 20.18979447 1.23892682 22.16796875 1.3671875 C23.35672607 1.44050293 24.5454834 1.51381836 25.77026367 1.58935547 C28.84990825 1.9809166 31.19678084 2.70122904 34 4 C34 4.99 34 5.98 34 7 C31.69 7.66 29.38 8.32 27 9 C27.33 7.68 27.66 6.36 28 5 C21.4 4.34 14.8 3.68 8 3 C8 4.65 8 6.3 8 8 C5.5 6.6875 5.5 6.6875 3 5 C3 4.01 3 3.02 3 2 C2.01 2 1.02 2 0 2 C0 1.34 0 0.68 0 0 Z " fill="#D7ABA4" transform="translate(191,205)"/>
<path d="M0 0 C0.66 0 1.32 0 2 0 C0.93013785 5.12168052 -0.28284163 10.05054353 -2 15 C-2.78488979 17.57314385 -3.5517522 20.15124706 -4.31640625 22.73046875 C-4.84822205 24.49609722 -5.41688149 26.25064448 -6 28 C-6.2165625 29.2684375 -6.2165625 29.2684375 -6.4375 30.5625 C-7 33 -7 33 -9 35 C-9.27338172 28.93092582 -8.46092445 24.22377946 -6.5 18.5 C-6.26152344 17.77296875 -6.02304688 17.0459375 -5.77734375 16.296875 C-5.19539824 14.52776065 -4.59919543 12.76334654 -4 11 C-5.98 11.99 -5.98 11.99 -8 13 C-6.5360077 9.93124691 -4.85990364 7.09565257 -3 4.25 C-2.484375 3.45078125 -1.96875 2.6515625 -1.4375 1.828125 C-0.963125 1.22484375 -0.48875 0.6215625 0 0 Z " fill="#7F7D71" transform="translate(149,56)"/>
<path d="M0 0 C4.4281048 0.70447122 7.28753496 3.68422779 10.10546875 7.0625 C12.34694157 8.93660554 14.05262006 8.93767013 16.9375 9.125 C17.83855469 9.19074219 18.73960937 9.25648438 19.66796875 9.32421875 C20.35503906 9.36160156 21.04210937 9.39898437 21.75 9.4375 C21.42 10.0975 21.09 10.7575 20.75 11.4375 C19.3129191 11.49172947 17.87524538 11.53039723 16.4375 11.5625 C15.63699219 11.58570313 14.83648437 11.60890625 14.01171875 11.6328125 C11.75 11.4375 11.75 11.4375 8.75 9.4375 C6.70294775 8.84010055 4.63766892 8.30340017 2.5625 7.8125 C0.93248047 7.42191406 0.93248047 7.42191406 -0.73046875 7.0234375 C-1.56191406 6.83007812 -2.39335937 6.63671875 -3.25 6.4375 C-3.875 4.5625 -3.875 4.5625 -4.25 2.4375 C-2.25 0.4375 -2.25 0.4375 0 0 Z " fill="#B7987C" transform="translate(196.25,173.5625)"/>
<path d="M0 0 C0.33 0 0.66 0 1 0 C2.07766401 5.3618201 2.28730528 10.61346908 2.375 16.0625 C2.41238281 16.94744141 2.44976562 17.83238281 2.48828125 18.74414062 C2.55048003 23.35030592 2.52916899 25.32518026 -0.3984375 29.05859375 C-4.25221665 31.93446197 -6.22265272 32.10385538 -11 32 C-9.68 31.34 -8.36 30.68 -7 30 C-7.66 29.67 -8.32 29.34 -9 29 C-9 27.68 -9 26.36 -9 25 C-2.375 22.125 -2.375 22.125 1 21 C0.67 14.07 0.34 7.14 0 0 Z " fill="#DDC0A9" transform="translate(299,159)"/>
<path d="M0 0 C2.375 0.1875 2.375 0.1875 5 1 C6.3125 3.5625 6.3125 3.5625 7 6 C6.01 6 5.02 6 4 6 C4 6.66 4 7.32 4 8 C7.465 7.505 7.465 7.505 11 7 C10.42655063 9.86724686 10.1385485 10.8614515 8 13 C7.67 12.34 7.34 11.68 7 11 C2.65535464 11.60825035 -1.67551867 12.26167392 -6 13 C-5.01 12.38125 -5.01 12.38125 -4 11.75 C-3.34 11.1725 -2.68 10.595 -2 10 C-2 8.68 -2 7.36 -2 6 C-1.38001259 3.98504093 -0.72045764 1.9812585 0 0 Z " fill="#CFAF9A" transform="translate(185,131)"/>
<path d="M0 0 C0.66 0.33 1.32 0.66 2 1 C2.03758423 2.56512329 2.03758423 2.56512329 2.07592773 4.16186523 C2.17081372 8.07017196 2.27082881 11.97833415 2.37231445 15.88647461 C2.41535886 17.57101028 2.45705223 19.25558108 2.49731445 20.94018555 C2.55576429 23.37559554 2.61923423 25.81083358 2.68359375 28.24609375 C2.70866249 29.35760048 2.70866249 29.35760048 2.73423767 30.49156189 C2.86168145 35.09256884 3.30043261 39.50678807 4.08534241 44.04603577 C4 46 4 46 2.51829529 47.7587738 C2.01725784 48.16837845 1.5162204 48.57798309 1 49 C-0.13473455 39.76001869 -0.06998828 30.57424562 0.03710938 21.27929688 C0.04548828 20.26931641 0.05386719 19.25933594 0.0625 18.21875 C0.07410156 17.31060547 0.08570313 16.40246094 0.09765625 15.46679688 C0.00579625 13.14641317 -0.37806747 11.22613315 -1 9 C-1.17002546 6.30459639 -1.08877822 3.70773562 -1 1 C-0.67 0.67 -0.34 0.34 0 0 Z " fill="#AB9D8D" transform="translate(281,101)"/>
<path d="M0 0 C1.4540625 0.0309375 1.4540625 0.0309375 2.9375 0.0625 C2.34836998 3.44813328 1.20182478 5.19015142 -1.125 7.6875 C-3.51236708 9.99652177 -3.51236708 9.99652177 -4.0625 13.0625 C-1.4225 13.0625 1.2175 13.0625 3.9375 13.0625 C3.6075 13.7225 3.2775 14.3825 2.9375 15.0625 C2.174375 15.000625 1.41125 14.93875 0.625 14.875 C-2.10775312 14.80351915 -2.10775312 14.80351915 -3.875 16.5625 C-4.266875 17.0575 -4.65875 17.5525 -5.0625 18.0625 C-6.625 16.5 -6.625 16.5 -8.0625 14.0625 C-7.85321052 8.41168393 -6.67128454 0.13614866 0 0 Z " fill="#D0AA84" transform="translate(196.0625,159.9375)"/>
<path d="M0 0 C2 0 2 0 4.125 1.9375 C6.64129481 6.04744819 6.36823948 9.30494667 6 14 C5.64292969 13.56042969 5.28585938 13.12085938 4.91796875 12.66796875 C2.29735092 10.38893858 -0.4363203 9.50352623 -3.6875 8.3125 C-4.86699219 7.87550781 -6.04648438 7.43851563 -7.26171875 6.98828125 C-8.16535156 6.66214844 -9.06898438 6.33601562 -10 6 C-10 5.67 -10 5.34 -10 5 C-8.02 5 -6.04 5 -4 5 C-4 4.34 -4 3.68 -4 3 C-4.99 2.67 -5.98 2.34 -7 2 C-4.69 2.33 -2.38 2.66 0 3 C0 2.01 0 1.02 0 0 Z " fill="#AC8969" transform="translate(194,122)"/>
<path d="M0 0 C1.50336914 -0.00483398 1.50336914 -0.00483398 3.03710938 -0.00976562 C8.55119523 0.03016521 13.22924159 0.47901773 18.4375 2.3125 C18.4375 2.6425 18.4375 2.9725 18.4375 3.3125 C14.90302909 4.12814713 11.87985379 4.34284968 8.3125 3.875 C-1.55493452 2.61884418 -10.83309004 3.38041859 -20.5625 5.3125 C-19.1245867 2.4366734 -16.94781847 1.96351274 -14.03173828 0.93212891 C-9.39392166 -0.23168151 -4.75387455 -0.0767249 0 0 Z " fill="#D4CCBF" transform="translate(206.5625,23.6875)"/>
<path d="M0 0 C0.38133299 1.9914056 0.71325582 3.99279077 1 6 C-0.71584497 7.71584497 -3.03200478 7.40976422 -5.375 7.625 C-6.35210937 7.72039062 -7.32921875 7.81578125 -8.3359375 7.9140625 C-11 8 -11 8 -14 7 C-14.75 5 -14.75 5 -15 3 C-13.2917862 1.2917862 -10.94861256 1.34916364 -8.625 0.9375 C-7.15933594 0.67259766 -7.15933594 0.67259766 -5.6640625 0.40234375 C-3 0 -3 0 0 0 Z " fill="#ECD8C3" transform="translate(219,167)"/>
<path d="M0 0 C-0.33 1.32 -0.66 2.64 -1 4 C-1.33 3.67 -1.66 3.34 -2 3 C-2.33 3.99 -2.66 4.98 -3 6 C-4.98 6 -6.96 6 -9 6 C-9 6.99 -9 7.98 -9 9 C-9.66 9 -10.32 9 -11 9 C-10.88608368 11.60508636 -10.75934452 14.20845546 -10.625 16.8125 C-10.5940625 17.55048828 -10.563125 18.28847656 -10.53125 19.04882812 C-10.32653852 22.81893115 -10.13566173 24.79650741 -8 28 C-7.875 30.6875 -7.875 30.6875 -8 33 C-8.66 32.67 -9.32 32.34 -10 32 C-10 31.01 -10 30.02 -10 29 C-10.66 29 -11.32 29 -12 29 C-13.16152902 25.51541293 -13.13270324 22.73309492 -13.125 19.0625 C-13.12757813 17.83660156 -13.13015625 16.61070312 -13.1328125 15.34765625 C-13.02667535 12.67237569 -12.79917654 10.53072572 -12 8 C-11.34 8 -10.68 8 -10 8 C-10 7.01 -10 6.02 -10 5 C-7.55161209 1.77843696 -4.06374253 0 0 0 Z " fill="#CDAE8A" transform="translate(230,113)"/>
<path d="M0 0 C1.65 0 3.3 0 5 0 C7.3125 3 7.3125 3 9 6 C6.03 5.505 6.03 5.505 3 5 C3 10.94 3 16.88 3 23 C2.01 22.67 1.02 22.34 0 22 C0 14.74 0 7.48 0 0 Z " fill="#AFA190" transform="translate(273,62)"/>
<path d="M0 0 C0.99 0 1.98 0 3 0 C3.4125 0.825 3.825 1.65 4.25 2.5 C4.8275 3.325 5.405 4.15 6 5 C9.62599422 5.41725678 9.62599422 5.41725678 13 5 C12 8 12 8 10.375 9.125 C7.28966239 10.26170333 4.25691115 10.62420256 1 11 C-1.01544839 8.73262056 -1.94914998 7.42714016 -2.3125 4.375 C-2 2 -2 2 0 0 Z " fill="#CBA48A" transform="translate(169,133)"/>
<path d="M0 0 C1.50433594 0.01353516 1.50433594 0.01353516 3.0390625 0.02734375 C3.80992187 0.03894531 4.58078125 0.05054687 5.375 0.0625 C5.375 0.7225 5.375 1.3825 5.375 2.0625 C4.715 2.0625 4.055 2.0625 3.375 2.0625 C3.375 2.7225 3.375 3.3825 3.375 4.0625 C-2.52238492 6.35592747 -7.29106918 7.40798714 -13.625 7.0625 C-12.965 6.7325 -12.305 6.4025 -11.625 6.0625 C-11.625 5.0725 -11.625 4.0825 -11.625 3.0625 C-10.305 3.0625 -8.985 3.0625 -7.625 3.0625 C-7.625 2.4025 -7.625 1.7425 -7.625 1.0625 C-4.98041621 -0.25979189 -2.94738699 -0.03427194 0 0 Z " fill="#59524A" transform="translate(245.625,115.9375)"/>
<path d="M0 0 C-0.33 0.99 -0.66 1.98 -1 3 C-3.38944591 4.00404398 -5.65607771 4.81569813 -8.125 5.5625 C-8.77726562 5.77068359 -9.42953125 5.97886719 -10.1015625 6.19335938 C-12.06258191 6.81395976 -14.02951617 7.41020871 -16 8 C-17.24652344 8.37769531 -18.49304688 8.75539062 -19.77734375 9.14453125 C-23.00094079 10.00024974 -25.68237701 10.16183527 -29 10 C-28.67 9.34 -28.34 8.68 -28 8 C-26.02 8 -24.04 8 -22 8 C-22 7.34 -22 6.68 -22 6 C-19.23735711 5.40267181 -16.83967231 5 -14 5 C-14 4.34 -14 3.68 -14 3 C-12.4188708 2.49307308 -10.83498617 1.99473557 -9.25 1.5 C-8.36828125 1.2215625 -7.4865625 0.943125 -6.578125 0.65625 C-4 0 -4 0 0 0 Z " fill="#C9A488" transform="translate(192,141)"/>
<path d="M0 0 C5.0811614 -0.3717923 8.52840513 0.55327828 13 3 C14.70703125 5.61328125 14.70703125 5.61328125 16 8 C13.56077639 7.91299202 11.12521586 7.80613998 8.6875 7.6875 C7.99720703 7.66494141 7.30691406 7.64238281 6.59570312 7.61914062 C1.44325817 7.3453392 1.44325817 7.3453392 -0.98046875 5.45703125 C-1.31691406 4.97621094 -1.65335938 4.49539062 -2 4 C-1.01 3.34 -0.02 2.68 1 2 C0.67 1.34 0.34 0.68 0 0 Z " fill="#978674" transform="translate(254,114)"/>
<path d="M0 0 C3.63 0.33 7.26 0.66 11 1 C11.33 2.32 11.66 3.64 12 5 C12.804375 5.144375 13.60875 5.28875 14.4375 5.4375 C17 6 17 6 18 7 C18.04063832 8.66617115 18.042721 10.33388095 18 12 C17.34 11.01 16.68 10.02 16 9 C15.443125 9.226875 14.88625 9.45375 14.3125 9.6875 C10.96474516 10.1398993 9.693624 8.97094439 7 7 C5.29413425 5.37347684 3.6222454 3.70993434 2 2 C1.34 1.34 0.68 0.68 0 0 Z " fill="#C5AE92" transform="translate(182,111)"/>
<path d="M0 0 C-0.99 0.53625 -1.98 1.0725 -3 1.625 C-6.58576133 3.66367882 -9.7771275 6.05409286 -13.03515625 8.57421875 C-15 10 -15 10 -18.4375 11.8125 C-23.44414726 14.52347259 -27.12401042 18.91087046 -31 23 C-31.66 23.66 -32.32 24.32 -33 25 C-33 20.81752765 -31.34869453 19.8825949 -28.4375 16.9375 C-22.642903 11.16814333 -8.33964113 -2.77988038 0 0 Z " fill="#D5D1CA" transform="translate(186,30)"/>
<path d="M0 0 C4.29 0 8.58 0 13 0 C12.01 0.495 12.01 0.495 11 1 C11 1.66 11 2.32 11 3 C11.99 3 12.98 3 14 3 C14 3.99 14 4.98 14 6 C15.32 6.66 16.64 7.32 18 8 C18 8.66 18 9.32 18 10 C14.14946244 8.51682998 10.45126299 6.82328226 6.75 5 C5.69296875 4.484375 4.6359375 3.96875 3.546875 3.4375 C1 2 1 2 0 0 Z " fill="#C99B89" transform="translate(180,204)"/>
<path d="M0 0 C2.97 0.495 2.97 0.495 6 1 C6 1.66 6 2.32 6 3 C4.02 3 2.04 3 0 3 C0 3.66 0 4.32 0 5 C-1.32064453 5.19916016 -1.32064453 5.19916016 -2.66796875 5.40234375 C-3.82941406 5.57894531 -4.99085938 5.75554687 -6.1875 5.9375 C-7.91033203 6.19853516 -7.91033203 6.19853516 -9.66796875 6.46484375 C-12.46325212 6.91379313 -15.22933586 7.42082162 -18 8 C-18.33 7.01 -18.66 6.02 -19 5 C-12.66692592 3.14897283 -6.57534861 1.62031591 0 1 C0 0.67 0 0.34 0 0 Z " fill="#CEB59E" transform="translate(184,124)"/>
<path d="M0 0 C1.45823212 -0.0270043 2.91660675 -0.04639787 4.375 -0.0625 C5.18710938 -0.07410156 5.99921875 -0.08570313 6.8359375 -0.09765625 C9 0 9 0 11 1 C11.125 3.375 11.125 3.375 11 6 C9 8 9 8 5.875 8.125 C4.92625 8.08375 3.9775 8.0425 3 8 C2.34 6.35 1.68 4.7 1 3 C2.65 2.67 4.3 2.34 6 2 C4.02 2 2.04 2 0 2 C0 1.34 0 0.68 0 0 Z " fill="#483F38" transform="translate(239,131)"/>
<path d="M0 0 C2 2 2 2 2.25 5.4375 C2.17767693 8.71103186 1.69460532 11.72896815 1.0234375 14.9296875 C-0.20750357 21.50368217 -0.44513595 28.0137944 -0.625 34.6875 C-0.66367187 35.87794922 -0.70234375 37.06839844 -0.7421875 38.29492188 C-0.83540995 41.19647053 -0.92121348 44.09802966 -1 47 C-1.33 47 -1.66 47 -2 47 C-2 34.79 -2 22.58 -2 10 C-1.34 9.67 -0.68 9.34 0 9 C0 6.03 0 3.06 0 0 Z " fill="#7D7971" transform="translate(285,91)"/>
<path d="M0 0 C0.33 0.99 0.66 1.98 1 3 C0.01 3.495 0.01 3.495 -1 4 C-0.67 2.68 -0.34 1.36 0 0 Z M-17 2 C-16.67 2.99 -16.34 3.98 -16 5 C-11.05 4.67 -6.1 4.34 -1 4 C-0.67 4.66 -0.34 5.32 0 6 C-3.99600094 8.18828623 -7.40812754 9.80460117 -12 10 C-15.05802473 8.708834 -16.59510665 7.98331242 -17.875 4.875 C-17.91625 4.25625 -17.9575 3.6375 -18 3 C-17.67 2.67 -17.34 2.34 -17 2 Z " fill="#E5CBB1" transform="translate(221,169)"/>
<path d="M0 0 C4.35509428 4.93577352 6.39062323 9.35940515 6 16 C5.01 16.33 4.02 16.66 3 17 C2.67 17.99 2.34 18.98 2 20 C1.67 20 1.34 20 1 20 C1.01160156 19.30132812 1.02320313 18.60265625 1.03515625 17.8828125 C1.04417969 16.97273438 1.05320312 16.06265625 1.0625 15.125 C1.07410156 14.22007812 1.08570313 13.31515625 1.09765625 12.3828125 C1.16249257 9.9831415 1.16249257 9.9831415 0 8 C-0.13415472 5.3276379 -0.04318541 2.67749512 0 0 Z " fill="#C48E6D" transform="translate(288,157)"/>
<path d="M0 0 C1 3 1 3 -0.73046875 6.5546875 C-1.54319091 7.99834977 -2.36260692 9.43825734 -3.1875 10.875 C-7.19379428 18.09561967 -9.99958056 24.95635539 -12 33 C-12.99 32.67 -13.98 32.34 -15 32 C-7.28865979 7.28865979 -7.28865979 7.28865979 0 0 Z " fill="#1E1D22" transform="translate(413,358)"/>
<path d="M0 0 C-0.33 0.99 -0.66 1.98 -1 3 C0.65 3 2.3 3 4 3 C4.33 3.99 4.66 4.98 5 6 C4.01 6 3.02 6 2 6 C2 5.34 2 4.68 2 4 C-0.64 3.67 -3.28 3.34 -6 3 C-6 2.34 -6 1.68 -6 1 C-12.93 2.485 -12.93 2.485 -20 4 C-20 4.33 -20 4.66 -20 5 C-21.98 5 -23.96 5 -26 5 C-25.67 4.01 -25.34 3.02 -25 2 C-16.61090382 0.7472283 -8.50262969 -0.36011137 0 0 Z " fill="#C3A889" transform="translate(259,122)"/>
<path d="M0 0 C2.97 0.495 2.97 0.495 6 1 C6.66 2.98 7.32 4.96 8 7 C7.34 7 6.68 7 6 7 C5.34 10.3 4.68 13.6 4 17 C3.34 16.67 2.68 16.34 2 16 C1.62109375 13.41796875 1.62109375 13.41796875 1.4375 10.1875 C1.22715991 6.66323027 0.9947316 3.3952409 0 0 Z " fill="#63635D" transform="translate(281,74)"/>
<path d="M0 0 C1.1875 1.625 1.1875 1.625 2 4 C0.8125 6.8125 0.8125 6.8125 -1 10 C-2.04392123 12.31620024 -3.01608115 14.65733608 -4 17 C-5.32 17 -6.64 17 -8 17 C-7.71788123 15.3733152 -7.42397625 13.74867104 -7.125 12.125 C-6.96257812 11.22007812 -6.80015625 10.31515625 -6.6328125 9.3828125 C-6 7 -6 7 -4 5 C-4 5.99 -4 6.98 -4 8 C-3.34 8 -2.68 8 -2 8 C-1.855625 7.236875 -1.71125 6.47375 -1.5625 5.6875 C-1 3 -1 3 0 0 Z " fill="#100F14" transform="translate(393,416)"/>
<path d="M0 0 C0 0.33 0 0.66 0 1 C-0.67804688 0.95359375 -1.35609375 0.9071875 -2.0546875 0.859375 C-10.11812567 0.54666549 -15.86730504 2.43365252 -23 6 C-22.51789077 0.45574388 -22.51789077 0.45574388 -20.4375 -1.375 C-13.50281399 -3.15312462 -6.82060915 -1.56538571 0 0 Z " fill="#C6AA8C" transform="translate(182,123)"/>
<path d="M0 0 C0.66 0 1.32 0 2 0 C-1.05835681 8.61900555 -6.37485748 16.29709751 -11.23046875 23.984375 C-12.77789859 26.62149606 -13.96409471 29.1313392 -15 32 C-15.66 32 -16.32 32 -17 32 C-15.50047648 26.68046124 -13.03100832 22.36819998 -10.1875 17.6875 C-9.28696221 16.18276908 -8.3872151 14.67756467 -7.48828125 13.171875 C-6.84366943 12.09583008 -6.84366943 12.09583008 -6.18603516 10.99804688 C-4.03757465 7.37865601 -2.01526814 3.69465826 0 0 Z " fill="#222225" transform="translate(307,401)"/>
<path d="M0 0 C0.33 0.66 0.66 1.32 1 2 C0.34 2 -0.32 2 -1 2 C-0.67 2.66 -0.34 3.32 0 4 C1.65 3.67 3.3 3.34 5 3 C5 2.34 5 1.68 5 1 C10.75 1.75 10.75 1.75 13 4 C12.28714844 4.10957031 11.57429688 4.21914062 10.83984375 4.33203125 C5.10499273 5.28140766 0.23766825 6.49028396 -5 9 C-5.99 9.33 -6.98 9.66 -8 10 C-7.67 8.68 -7.34 7.36 -7 6 C-6.34 6 -5.68 6 -5 6 C-4.67 5.01 -4.34 4.02 -4 3 C-3.34 3 -2.68 3 -2 3 C-2 2.34 -2 1.68 -2 1 C-1.34 0.67 -0.68 0.34 0 0 Z " fill="#A8947B" transform="translate(156,115)"/>
<path d="M0 0 C2.31 0.33 4.62 0.66 7 1 C7.33 1.99 7.66 2.98 8 4 C6.35 3.67 4.7 3.34 3 3 C3.33 6.3 3.66 9.6 4 13 C2.35 13.66 0.7 14.32 -1 15 C-0.67 10.05 -0.34 5.1 0 0 Z " fill="#9C9081" transform="translate(276,67)"/>
<path d="M0 0 C0 0.66 0 1.32 0 2 C0.66 2.33 1.32 2.66 2 3 C1 4 1 4 -2.125 4.25 C-6.59123709 3.96185567 -9.06067374 3.04844965 -13 1 C-13.33 0.34 -13.66 -0.32 -14 -1 C-8.65998179 -2.33500455 -5.16044765 -1.512545 0 0 Z " fill="#C6A181" transform="translate(256,147)"/>
<path d="M0 0 C0.33 0 0.66 0 1 0 C1.36033521 10.93016817 1.38571322 22.23193932 -4 32 C-5.35015859 27.94952424 -4.62084998 25.2079832 -4 21 C-3.34 21 -2.68 21 -2 21 C-2.04125 19.7625 -2.0825 18.525 -2.125 17.25 C-2.14371192 11.38381252 -1.08918033 5.74737122 0 0 Z " fill="#B6A188" transform="translate(147,72)"/>
<path d="M0 0 C2.90292752 3.27672915 3.58029064 5.95282609 4.1875 10.25 C4.34605469 11.32765625 4.50460938 12.4053125 4.66796875 13.515625 C4.83232422 14.74539062 4.83232422 14.74539062 5 16 C4.01 16 3.02 16 2 16 C2 15.34 2 14.68 2 14 C1.34 14 0.68 14 0 14 C-0.19393875 11.85473901 -0.37998676 9.70876323 -0.5625 7.5625 C-0.71912109 5.77005859 -0.71912109 5.77005859 -0.87890625 3.94140625 C-0.91886719 2.97074219 -0.95882812 2.00007812 -1 1 C-0.67 0.67 -0.34 0.34 0 0 Z " fill="#C18D6D" transform="translate(129,167)"/>
<path d="M0 0 C0.76054687 0.09796875 1.52109375 0.1959375 2.3046875 0.296875 C3.18125 0.40386719 4.0578125 0.51085937 4.9609375 0.62109375 C6.023125 0.76160156 7.0853125 0.90210938 8.1796875 1.046875 C9.58578478 1.22128774 10.99204611 1.39438119 12.3984375 1.56640625 C16.32696767 2.0488726 20.25357236 2.54515061 24.1796875 3.046875 C24.1796875 3.376875 24.1796875 3.706875 24.1796875 4.046875 C20.63809093 4.10528753 17.09661957 4.14060952 13.5546875 4.171875 C12.55566406 4.18863281 11.55664062 4.20539063 10.52734375 4.22265625 C5.33880041 4.25701746 1.03045101 4.14942437 -3.8203125 2.046875 C-1.8203125 0.046875 -1.8203125 0.046875 0 0 Z " fill="#9F9281" transform="translate(188.8203125,255.953125)"/>
<path d="M0 0 C1.093125 0.226875 2.18625 0.45375 3.3125 0.6875 C3.355221 2.35361905 3.35313832 4.02132885 3.3125 5.6875 C2.3125 6.6875 2.3125 6.6875 -1.25 6.75 C-2.384375 6.729375 -3.51875 6.70875 -4.6875 6.6875 C-4.3575 6.0275 -4.0275 5.3675 -3.6875 4.6875 C-4.6775 4.0275 -5.6675 3.3675 -6.6875 2.6875 C-4.58035839 -0.41123767 -3.86755884 -0.32775922 0 0 Z " fill="#C49C7E" transform="translate(231.6875,174.3125)"/>
<path d="M0 0 C1.00109515 3.31070838 1.10356134 6.30084769 1.0625 9.75 C1.05347656 10.73484375 1.04445313 11.7196875 1.03515625 12.734375 C1.02355469 13.48203125 1.01195312 14.2296875 1 15 C0.34 15 -0.32 15 -1 15 C-1 20.94 -1 26.88 -1 33 C-3.16060203 28.67879593 -3.10087766 26.0468831 -2.6875 21.4375 C-2.63916016 20.76525391 -2.59082031 20.09300781 -2.54101562 19.40039062 C-2.3068033 16.41492471 -1.95082971 13.85248914 -1 11 C-1.09406754 8.70546505 -1.09406754 8.70546505 -1.4375 6.3125 C-1.53933594 5.50425781 -1.64117187 4.69601563 -1.74609375 3.86328125 C-1.82988281 3.24839844 -1.91367187 2.63351563 -2 2 C-1.34 2 -0.68 2 0 2 C0 1.34 0 0.68 0 0 Z " fill="#AC917B" transform="translate(289,128)"/>
<path d="M0 0 C0.66 0.33 1.32 0.66 2 1 C1.2884375 2.6396875 1.2884375 2.6396875 0.5625 4.3125 C-1.38708745 9.43476513 -1.71029954 14.56561888 -2 20 C-4 18 -4 18 -4.1953125 14.3046875 C-4.182009 12.82799892 -4.15814835 11.35137642 -4.125 9.875 C-4.11146484 8.74384766 -4.11146484 8.74384766 -4.09765625 7.58984375 C-4.0740687 5.72642746 -4.03819719 3.86317407 -4 2 C-2.68 2 -1.36 2 0 2 C0 1.34 0 0.68 0 0 Z " fill="#BE9C75" transform="translate(223,120)"/>
<path d="M0 0 C0.78375 0.165 1.5675 0.33 2.375 0.5 C6.27425503 1.03782828 9.90739376 0.94416456 13.828125 0.7421875 C14.90320313 0.86980469 14.90320313 0.86980469 16 1 C16.66 1.99 17.32 2.98 18 4 C15.64531545 6.72647685 13.4591583 7.98756342 10 9 C7.6875 8.625 7.6875 8.625 6 8 C7.65 7.67 9.3 7.34 11 7 C11 6.34 11 5.68 11 5 C11.66 5 12.32 5 13 5 C13 4.34 13 3.68 13 3 C9.04 3 5.08 3 1 3 C0.67 2.01 0.34 1.02 0 0 Z " fill="#827769" transform="translate(238,113)"/>
<path d="M0 0 C2 2 2 2 2.1953125 3.9453125 C2.13020833 5.96354167 2.06510417 7.98177083 2 10 C1.34 10 0.68 10 0 10 C0 9.01 0 8.02 0 7 C-0.9590625 7.2784375 -0.9590625 7.2784375 -1.9375 7.5625 C-2.618125 7.706875 -3.29875 7.85125 -4 8 C-5 7 -5 7 -5.0625 4.4375 C-5.041875 3.633125 -5.02125 2.82875 -5 2 C-3.35 1.34 -1.7 0.68 0 0 Z " fill="#D7B193" transform="translate(293,148)"/>
<path d="M0 0 C6.15234375 -0.09765625 6.15234375 -0.09765625 8 0 C8.33 0.33 8.66 0.66 9 1 C11.33297433 1.04092937 13.66705225 1.04241723 16 1 C15.67 1.99 15.34 2.98 15 4 C10.05 3.67 5.1 3.34 0 3 C0 2.01 0 1.02 0 0 Z " fill="#E1C5BF" transform="translate(202,209)"/>
<path d="M0 0 C2.97 0.495 2.97 0.495 6 1 C6.33 2.32 6.66 3.64 7 5 C5.68 5 4.36 5 3 5 C3.33 7.64 3.66 10.28 4 13 C3.01 12.67 2.02 12.34 1 12 C0.03929566 9.11788698 -0.10581883 7.30149956 -0.0625 4.3125 C-0.05347656 3.50425781 -0.04445313 2.69601563 -0.03515625 1.86328125 C-0.02355469 1.24839844 -0.01195312 0.63351563 0 0 Z " fill="#837C70" transform="translate(279,70)"/>
<path d="M0 0 C1.61067284 2.84236383 2.2447328 4.84763543 2.1953125 8.109375 C2.18886719 8.86347656 2.18242187 9.61757812 2.17578125 10.39453125 C2.15902344 11.17183594 2.14226562 11.94914063 2.125 12.75 C2.11597656 13.54277344 2.10695313 14.33554688 2.09765625 15.15234375 C2.07417012 17.10169281 2.03830137 19.05088575 2 21 C0.02 21.99 0.02 21.99 -2 23 C-1.84152588 22.4337793 -1.68305176 21.86755859 -1.51977539 21.28417969 C-0.99214152 18.9654655 -0.795844 16.82641603 -0.68359375 14.453125 C-0.64169922 13.60878906 -0.59980469 12.76445312 -0.55664062 11.89453125 C-0.51732422 11.02183594 -0.47800781 10.14914063 -0.4375 9.25 C-0.39431641 8.36183594 -0.35113281 7.47367188 -0.30664062 6.55859375 C-0.20086385 4.37254037 -0.09877454 2.18637911 0 0 Z " fill="#B68363" transform="translate(296,156)"/>
<path d="M0 0 C1.051875 0.495 1.051875 0.495 2.125 1 C1.465 1.66 0.805 2.32 0.125 3 C1.445 4.32 2.765 5.64 4.125 7 C0.18379291 6.43697042 -2.6258723 5.3208055 -5.875 3 C-5.875 2.34 -5.875 1.68 -5.875 1 C-8.185 1 -10.495 1 -12.875 1 C-8.54880152 -1.66227599 -4.74742897 -1.65127964 0 0 Z " fill="#B3937A" transform="translate(257.875,130)"/>
<path d="M0 0 C4.84659077 0.59104765 8.60748167 1.97944157 13 4 C12.01 4.33 11.02 4.66 10 5 C10.33 6.32 10.66 7.64 11 9 C10.34 9 9.68 9 9 9 C9 8.01 9 7.02 9 6 C8.01 6 7.02 6 6 6 C6 5.34 6 4.68 6 4 C4.68 4 3.36 4 2 4 C1.34 4.99 0.68 5.98 0 7 C0 4.69 0 2.38 0 0 Z " fill="#B18C74" transform="translate(184,128)"/>
<path d="M0 0 C-0.33 0.66 -0.66 1.32 -1 2 C-3.32156597 2.40729228 -5.6568787 2.74438677 -8 3 C-8 3.66 -8 4.32 -8 5 C-10.31 5.33 -12.62 5.66 -15 6 C-13.96096588 2.98680106 -12.99930443 1.99953089 -10.3125 0.1875 C-6.41200844 -1.21078943 -4.00165645 -0.88036442 0 0 Z " fill="#E3CFB3" transform="translate(230,111)"/>
<path d="M0 0 C-5.58044498 3.21948749 -10.65128326 3.14212433 -16.875 2.0625 C-18.02742187 1.86785156 -19.17984375 1.67320312 -20.3671875 1.47265625 C-21.67042969 1.23869141 -21.67042969 1.23869141 -23 1 C-23 0.67 -23 0.34 -23 0 C-19.91722144 -0.1974877 -16.8337715 -0.38123332 -13.75 -0.5625 C-12.87730469 -0.61857422 -12.00460938 -0.67464844 -11.10546875 -0.73242188 C-10.26113281 -0.78076172 -9.41679687 -0.82910156 -8.546875 -0.87890625 C-7.77182617 -0.9260376 -6.99677734 -0.97316895 -6.19824219 -1.02172852 C-3.96887415 -0.99969234 -2.13101433 -0.6303897 0 0 Z " fill="#9C756B" transform="translate(243,206)"/>
<path d="M0 0 C23.20305588 -0.65860202 23.20305588 -0.65860202 30 3 C30.33 3.66 30.66 4.32 31 5 C27.05880593 4.58513747 23.54907979 4.16894763 19.75 3 C15.61940164 1.8985071 11.81168556 1.5616065 7.5625 1.375 C6.46518555 1.31699219 6.46518555 1.31699219 5.34570312 1.2578125 C3.56416468 1.16466016 1.78211878 1.08129714 0 1 C0 0.67 0 0.34 0 0 Z " fill="#DAD8D3" transform="translate(202,23)"/>
<path d="M0 0 C1.65 0 3.3 0 5 0 C6.8125 2.5 6.8125 2.5 8 5 C7.34 5 6.68 5 6 5 C6 4.34 6 3.68 6 3 C4.68 3.33 3.36 3.66 2 4 C1.67 9.94 1.34 15.88 1 22 C0.67 22 0.34 22 0 22 C0 14.74 0 7.48 0 0 Z " fill="#B9AD9F" transform="translate(273,62)"/>
<path d="M0 0 C2.8961496 0.3097647 5.79189576 0.62271188 8.6875 0.9375 C9.50412109 1.02451172 10.32074219 1.11152344 11.16210938 1.20117188 C15.15450219 1.63758728 19.07652852 2.11302376 23 3 C23 3.33 23 3.66 23 4 C19.54133208 3.86149295 16.08316725 3.71295273 12.625 3.5625 C11.64015625 3.52318359 10.6553125 3.48386719 9.640625 3.44335938 C8.69960937 3.40146484 7.75859375 3.35957031 6.7890625 3.31640625 C5.91975098 3.27974854 5.05043945 3.24309082 4.15478516 3.20532227 C2 3 2 3 0 2 C0 1.34 0 0.68 0 0 Z " fill="#A57A6B" transform="translate(178,201)"/>
<path d="M0 0 C0.99 0 1.98 0 3 0 C3.99 2.64 4.98 5.28 6 8 C0.25 7.25 0.25 7.25 -2 5 C-1.46428571 1.46428571 -1.46428571 1.46428571 0 0 Z " fill="#CEBEB1" transform="translate(169,133)"/>
<path d="M0 0 C0 2.31 0 4.62 0 7 C-4.455 6.01 -4.455 6.01 -9 5 C-9 4.34 -9 3.68 -9 3 C-3.375 0 -3.375 0 0 0 Z " fill="#DBD0C9" transform="translate(238,132)"/>
<path d="M0 0 C-4.82316294 4.82316294 -13.60892197 4.46715411 -20.046875 5.046875 C-23.02740541 4.99956499 -24.51159106 4.57035516 -27 3 C-25.62328125 2.92652344 -25.62328125 2.92652344 -24.21875 2.8515625 C-16.27375775 2.36751885 -7.80836408 -0.48802276 0 0 Z " fill="#EFEDE5" transform="translate(227,323)"/>
<path d="M0 0 C2.375 0.1875 2.375 0.1875 5 1 C6.3125 3.5625 6.3125 3.5625 7 6 C4.03 6.66 1.06 7.32 -2 8 C-1.34 5.36 -0.68 2.72 0 0 Z " fill="#DCD3CF" transform="translate(185,131)"/>
<path d="M0 0 C2.64 0.33 5.28 0.66 8 1 C8.93423645 4.01031744 9.04449911 4.86650268 8 8 C5.69 8 3.38 8 1 8 C1.33 7.01 1.66 6.02 2 5 C2.99 5 3.98 5 5 5 C4.67 3.68 4.34 2.36 4 1 C2.68 0.67 1.36 0.34 0 0 Z " fill="#BEA789" transform="translate(240,203)"/>
<path d="M0 0 C4.31392226 0.4793247 6.16569547 1.7457985 9 5 C5.69564916 6.12377697 3.9493138 5.89554742 0.75 4.5625 C0.04359375 4.27503906 -0.6628125 3.98757812 -1.390625 3.69140625 C-1.92171875 3.46324219 -2.4528125 3.23507813 -3 3 C-2.01 2.67 -1.02 2.34 0 2 C0 1.34 0 0.68 0 0 Z " fill="#C39C7D" transform="translate(195,176)"/>
<path d="M0 0 C1.32 0 2.64 0 4 0 C3.34 3.3 2.68 6.6 2 10 C1.67 10 1.34 10 1 10 C0.67 8.35 0.34 6.7 0 5 C-0.33 7.64 -0.66 10.28 -1 13 C-1.33 13 -1.66 13 -2 13 C-2.05416188 11.39620659 -2.09286638 9.79188594 -2.125 8.1875 C-2.14820312 7.29417969 -2.17140625 6.40085938 -2.1953125 5.48046875 C-2 3 -2 3 0 0 Z " fill="#CB9472" transform="translate(130,148)"/>
<path d="M0 0 C1.32 0.33 2.64 0.66 4 1 C4.625 2.875 4.625 2.875 5 5 C3 7 3 7 -0.125 7.125 C-1.548125 7.063125 -1.548125 7.063125 -3 7 C-2.690625 6.401875 -2.38125 5.80375 -2.0625 5.1875 C-0.89790296 2.91043228 -0.89790296 2.91043228 0 0 Z " fill="#C8BDB2" transform="translate(250,134)"/>
<path d="M0 0 C1.65 0 3.3 0 5 0 C5.33 1.32 5.66 2.64 6 4 C5.36191406 4.20496094 4.72382813 4.40992188 4.06640625 4.62109375 C3.24011719 4.89050781 2.41382813 5.15992188 1.5625 5.4375 C0.32693359 5.83775391 0.32693359 5.83775391 -0.93359375 6.24609375 C-2.96219588 6.82155494 -2.96219588 6.82155494 -4 8 C-5.66617115 8.04063832 -7.33388095 8.042721 -9 8 C-8.4375 6.0625 -8.4375 6.0625 -7 4 C-3.5625 3.3125 -3.5625 3.3125 0 3 C0.99 2.67 1.98 2.34 3 2 C2.01 1.34 1.02 0.68 0 0 Z " fill="#B28F7D" transform="translate(239,204)"/>
<path d="M0 0 C5.94 0.33 11.88 0.66 18 1 C18 1.33 18 1.66 18 2 C12.555 2.495 12.555 2.495 7 3 C7.33 4.65 7.66 6.3 8 8 C5.5 6.6875 5.5 6.6875 3 5 C3 4.01 3 3.02 3 2 C2.01 2 1.02 2 0 2 C0 1.34 0 0.68 0 0 Z " fill="#D2A499" transform="translate(191,205)"/>
<path d="M0 0 C1.58620589 2.86561476 2.40029731 5.31434284 2.8125 8.5625 C2.97685547 9.70912109 2.97685547 9.70912109 3.14453125 10.87890625 C3 13 3 13 1.51171875 14.77734375 C1.01285156 15.18082031 0.51398438 15.58429688 0 16 C-0.1958009 14.08416353 -0.38132214 12.16727461 -0.5625 10.25 C-0.66691406 9.18265625 -0.77132813 8.1153125 -0.87890625 7.015625 C-0.98560074 4.35858796 -0.81930395 2.50039428 0 0 Z " fill="#B6A99D" transform="translate(282,134)"/>
<path d="M0 0 C2.01623639 1.78277744 3.37344618 3.83126157 5 6 C4.29101562 5.6803125 3.58203125 5.360625 2.8515625 5.03125 C-0.93443289 3.66206811 -4.48423489 3.56250768 -8.4765625 3.34375 C-11 3 -11 3 -14 1 C-12.41693353 0.83081732 -10.83353281 0.66476064 -9.25 0.5 C-8.36828125 0.4071875 -7.4865625 0.314375 -6.578125 0.21875 C-4 0 -4 0 0 0 Z " fill="#B6A38B" transform="translate(260,111)"/>
<path d="M0 0 C-0.4979837 3.73487777 -0.87491756 5.81237635 -3 9 C-3.66 8.34 -4.32 7.68 -5 7 C-5.33 7.66 -5.66 8.32 -6 9 C-6.66 9 -7.32 9 -8 9 C-6.53333333 3.5 -6.53333333 3.5 -4 1.125 C-2 0 -2 0 0 0 Z " fill="#656861" transform="translate(145,67)"/>
<path d="M0 0 C6.75 5.625 6.75 5.625 9 9 C7.35 9 5.7 9 4 9 C3.67 9.99 3.34 10.98 3 12 C2.01 8.04 1.02 4.08 0 0 Z " fill="#C1BBB4" transform="translate(269,53)"/>
<path d="M0 0 C0.33 0.66 0.66 1.32 1 2 C0.28735352 3.78759766 0.28735352 3.78759766 -0.87109375 5.9140625 C-1.28037109 6.67460937 -1.68964844 7.43515625 -2.11132812 8.21875 C-2.54896484 9.0128125 -2.98660156 9.806875 -3.4375 10.625 C-3.87126953 11.42679687 -4.30503906 12.22859375 -4.75195312 13.0546875 C-5.82756988 15.04044151 -6.91047213 17.0218546 -8 19 C-9.16035231 15.55146309 -9.06580577 15.13908225 -7.3828125 11.58203125 C-6.64275174 10.31809235 -5.88962648 9.06173089 -5.125 7.8125 C-4.55845703 6.85053711 -4.55845703 6.85053711 -3.98046875 5.86914062 C-1.22349838 1.22349838 -1.22349838 1.22349838 0 0 Z " fill="#242327" transform="translate(423,339)"/>
<path d="M0 0 C1.485 0.99 1.485 0.99 3 2 C3 2.66 3 3.32 3 4 C4.65 4 6.3 4 8 4 C8.33 5.32 8.66 6.64 9 8 C6.36 7.67 3.72 7.34 1 7 C1 6.34 1 5.68 1 5 C0.34 4.67 -0.32 4.34 -1 4 C-0.67 2.68 -0.34 1.36 0 0 Z " fill="#D1B7A5" transform="translate(238,137)"/>
<path d="M0 0 C0 0.99 0 1.98 0 3 C-3.21451269 4.60725635 -6.43612536 4.05748185 -10 4 C-9.34 3.67 -8.68 3.34 -8 3 C-8 2.01 -8 1.02 -8 0 C-4.94736336 -0.98120464 -3.05263664 -0.98120464 0 0 Z " fill="#483E37" transform="translate(242,119)"/>
<path d="M0 0 C1.42892578 0.11794922 1.42892578 0.11794922 2.88671875 0.23828125 C5.3125 0.6875 5.3125 0.6875 7.3125 2.6875 C6.39017578 2.67009766 6.39017578 2.67009766 5.44921875 2.65234375 C4.23685547 2.63880859 4.23685547 2.63880859 3 2.625 C2.19949219 2.61339844 1.39898437 2.60179688 0.57421875 2.58984375 C-1.85611334 2.59092145 -1.85611334 2.59092145 -4.6875 3.6875 C-6.68711564 3.72670815 -8.68799364 3.73193347 -10.6875 3.6875 C-10.6875 2.6975 -10.6875 1.7075 -10.6875 0.6875 C-6.96764333 -0.21366746 -3.80715974 -0.34799414 0 0 Z " fill="#70665B" transform="translate(177.6875,114.3125)"/>
<path d="M0 0 C6.40629424 -0.20852314 11.92972642 -0.1583195 18 2 C18 2.33 18 2.66 18 3 C9.77740864 3.16445183 9.77740864 3.16445183 5.75 2.3125 C2.2329449 1.91283465 0.79465722 2.94510499 -2 5 C-1.34 3.35 -0.68 1.7 0 0 Z " fill="#9E8F7B" transform="translate(235,112)"/>
<path d="M0 0 C0.66 0.99 1.32 1.98 2 3 C1.57814134 5.01194129 1.1442337 7.02491635 0.57421875 9 C-0.07479484 11.12580185 -0.07479484 11.12580185 -0.5 13.875 C-1 16 -1 16 -3 18 C-3.36517527 11.42684522 -2.13619737 6.20514474 0 0 Z " fill="#7F7668" transform="translate(143,73)"/>
<path d="M0 0 C2.31 0 4.62 0 7 0 C7 0.33 7 0.66 7 1 C5.02 1 3.04 1 1 1 C1 1.66 1 2.32 1 3 C2.98 3 4.96 3 7 3 C6.67 3.66 6.34 4.32 6 5 C4.68 4.67 3.36 4.34 2 4 C2.63979849 6.03241727 2.63979849 6.03241727 4 8 C6.55519921 8.81171228 6.55519921 8.81171228 9 9 C9 9.33 9 9.66 9 10 C3.63157895 10.35789474 3.63157895 10.35789474 1.125 8.9375 C-0.58196395 5.99772876 -0.18799766 3.32129197 0 0 Z " fill="#73675F" transform="translate(238,130)"/>
<path d="M0 0 C2.97 0 5.94 0 9 0 C9 2.64 9 5.28 9 8 C8.01 8.33 7.02 8.66 6 9 C5.34 7.02 4.68 5.04 4 3 C4.99 2.67 5.98 2.34 7 2 C4.69 1.67 2.38 1.34 0 1 C0 0.67 0 0.34 0 0 Z " fill="#726862" transform="translate(175,129)"/>
<path d="M0 0 C0.99 0.33 1.98 0.66 3 1 C2.83628906 1.64324219 2.67257813 2.28648438 2.50390625 2.94921875 C1.84665324 6.92840171 1.893647 10.7881437 1.9375 14.8125 C1.94426758 15.99489258 1.94426758 15.99489258 1.95117188 17.20117188 C1.96288688 19.13414761 1.98082002 21.06708393 2 23 C1.67 23 1.34 23 1 23 C0.67 15.41 0.34 7.82 0 0 Z " fill="#918677" transform="translate(139,93)"/>
<path d="M0 0 C0.33 0 0.66 0 1 0 C0.93965068 2.22990727 0.8507725 4.4590536 0.75 6.6875 C0.68039063 8.54955078 0.68039063 8.54955078 0.609375 10.44921875 C-0.07137845 14.41591675 -1.25338754 16.12704336 -4 19 C-4 14.79056158 -3.1210867 11.25712745 -2 7.25 C-1.80921875 6.55261719 -1.6184375 5.85523437 -1.421875 5.13671875 C-0.9524279 3.42323682 -0.47682043 1.71144476 0 0 Z " fill="#988A76" transform="translate(147,66)"/>
<path d="M0 0 C0.99 0.33 1.98 0.66 3 1 C2.74445946 2.46109063 2.46999628 3.91888096 2.1875 5.375 C2.03667969 6.18710938 1.88585937 6.99921875 1.73046875 7.8359375 C1 10 1 10 -2 12 C-1.85831863 10.56208484 -1.71148957 9.1246763 -1.5625 7.6875 C-1.48128906 6.88699219 -1.40007812 6.08648437 -1.31640625 5.26171875 C-1 3 -1 3 0 0 Z " fill="#C2B19D" transform="translate(141,140)"/>
<path d="M0 0 C0.515625 0.66 1.03125 1.32 1.5625 2 C4.80596037 4.66130081 6.91061205 4.15145881 11 4 C13 6 13 6 13 8 C8.02906176 7.58846263 3.55491614 7.20399168 -1 5 C-0.67 3.35 -0.34 1.7 0 0 Z " fill="#B49076" transform="translate(255,136)"/>
<path d="M0 0 C0.66 0 1.32 0 2 0 C2 0.99 2 1.98 2 3 C3.65 2.67 5.3 2.34 7 2 C7.25 4.8125 7.25 4.8125 7 8 C5 9.875 5 9.875 3 11 C3.57584432 8.61435923 4.22227595 6.33317216 5 4 C2.69 4.33 0.38 4.66 -2 5 C-2 4.34 -2 3.68 -2 3 C-1.01 3 -0.02 3 1 3 C0.67 2.01 0.34 1.02 0 0 Z " fill="#C4A184" transform="translate(191,134)"/>
<path d="M0 0 C2 1 2 1 2 1 Z M0 2 C-1.24735567 2.6509259 -2.49801832 3.29551669 -3.75 3.9375 C-4.44609375 4.29714844 -5.1421875 4.65679688 -5.859375 5.02734375 C-7.90224433 5.95558182 -9.81115376 6.53166578 -12 7 C-11.34 5.35 -10.68 3.7 -10 2 C-3.375 0.875 -3.375 0.875 0 2 Z " fill="#D2C0AF" transform="translate(198,26)"/>
<path d="M0 0 C3.3 0 6.6 0 10 0 C9.67 0.66 9.34 1.32 9 2 C8.01 2 7.02 2 6 2 C6.66 3.32 7.32 4.64 8 6 C6.35 5.67 4.7 5.34 3 5 C3.66 4.67 4.32 4.34 5 4 C5 3.34 5 2.68 5 2 C3.35 2 1.7 2 0 2 C0 1.34 0 0.68 0 0 Z " fill="#423837" transform="translate(173,130)"/>
<path d="M0 0 C0 0.33 0 0.66 0 1 C-1.98 1 -3.96 1 -6 1 C-6 1.66 -6 2.32 -6 3 C-7.53125 4.2890625 -7.53125 4.2890625 -9.5 5.625 C-10.1496875 6.07101563 -10.799375 6.51703125 -11.46875 6.9765625 C-11.9740625 7.31429687 -12.479375 7.65203125 -13 8 C-12.51789077 2.45574388 -12.51789077 2.45574388 -10.4375 0.625 C-6.89649716 -0.28294945 -3.65233264 -0.12174442 0 0 Z " fill="#BCA081" transform="translate(172,121)"/>
<path d="M0 0 C1.32 0.33 2.64 0.66 4 1 C3.67 2.32 3.34 3.64 3 5 C4.32 4.67 5.64 4.34 7 4 C7.33 4.66 7.66 5.32 8 6 C6.35 6 4.7 6 3 6 C3 6.66 3 7.32 3 8 C2.34 8 1.68 8 1 8 C0.67 5.36 0.34 2.72 0 0 Z " fill="#C29F7F" transform="translate(224,133)"/>
<path d="M0 0 C0.33 0.66 0.66 1.32 1 2 C0.67 2.66 0.34 3.32 0 4 C1.65 4 3.3 4 5 4 C5 4.33 5 4.66 5 5 C2.69 5.33 0.38 5.66 -2 6 C-2.33 5.34 -2.66 4.68 -3 4 C-3.99 4.33 -4.98 4.66 -6 5 C-5.67 3.68 -5.34 2.36 -5 1 C-3.35 0.67 -1.7 0.34 0 0 Z " fill="#A48667" transform="translate(229,120)"/>
<path d="M0 0 C1.98 0.66 3.96 1.32 6 2 C6 3.32 6 4.64 6 6 C3.69 5.67 1.38 5.34 -1 5 C-0.67 3.35 -0.34 1.7 0 0 Z " fill="#B78060" transform="translate(293,141)"/>
<path d="M0 0 C2.10388569 -0.05402274 4.20816714 -0.09280256 6.3125 -0.125 C8.07013672 -0.15980469 8.07013672 -0.15980469 9.86328125 -0.1953125 C13 0 13 0 16 2 C13.59454362 3.20272819 12.05003047 3.10071472 9.375 3.0625 C8.14910156 3.04896484 8.14910156 3.04896484 6.8984375 3.03515625 C5.95871094 3.01775391 5.95871094 3.01775391 5 3 C5 2.34 5 1.68 5 1 C3.35 1 1.7 1 0 1 C0 0.67 0 0.34 0 0 Z " fill="#C3A38F" transform="translate(241,140)"/>
<path d="M0 0 C0.66 0.33 1.32 0.66 2 1 C0.62141149 3.75717702 -1.37466315 4.46321746 -4 6 C-4.66 6.66 -5.32 7.32 -6 8 C-7.32 7.67 -8.64 7.34 -10 7 C-6.7 4.69 -3.4 2.38 0 0 Z " fill="#7D6050" transform="translate(171,130)"/>
<path d="M0 0 C1.078125 1.81640625 1.078125 1.81640625 2 4 C0.75 6.9375 0.75 6.9375 -1 10 C-1.68528045 11.65910004 -2.35891863 13.32332564 -3 15 C-4.28497537 11.14507389 -3.4052209 9.59653164 -2.0625 5.8125 C-1.68222656 4.72582031 -1.30195313 3.63914062 -0.91015625 2.51953125 C-0.60980469 1.68808594 -0.30945313 0.85664063 0 0 Z " fill="#19181B" transform="translate(393,416)"/>
<path d="M0 0 C0.66 0 1.32 0 2 0 C1.88490339 1.41750563 1.75746342 2.83401169 1.625 4.25 C1.55539062 5.03890625 1.48578125 5.8278125 1.4140625 6.640625 C0.98492887 9.085877 0.21399362 10.84836903 -1 13 C-1.02708567 11.39592672 -1.04643483 9.7917215 -1.0625 8.1875 C-1.07410156 7.29417969 -1.08570313 6.40085937 -1.09765625 5.48046875 C-1 3 -1 3 0 0 Z " fill="#AF9C8B" transform="translate(279,266)"/>
<path d="M0 0 C0.66 0.99 1.32 1.98 2 3 C1.01 4.485 1.01 4.485 0 6 C-0.29452584 8.38677076 -0.4928217 10.78626094 -0.625 13.1875 C-0.69976562 14.45980469 -0.77453125 15.73210937 -0.8515625 17.04296875 C-0.90054688 18.01878906 -0.94953125 18.99460937 -1 20 C-1.33 20 -1.66 20 -2 20 C-2.05425226 17.60385874 -2.09379027 15.20896147 -2.125 12.8125 C-2.14175781 12.13896484 -2.15851563 11.46542969 -2.17578125 10.77148438 C-2.21538674 6.71192193 -1.80020002 3.65001185 0 0 Z " fill="#968677" transform="translate(149,248)"/>
<path d="M0 0 C0.99 0 1.98 0 3 0 C3 0.99 3 1.98 3 3 C3.99 3 4.98 3 6 3 C6 3.66 6 4.32 6 5 C4.02 5.33 2.04 5.66 0 6 C0.33 5.34 0.66 4.68 1 4 C0.01 3.34 -0.98 2.68 -2 2 C-1.34 1.34 -0.68 0.68 0 0 Z " fill="#AA7C61" transform="translate(227,175)"/>
<path d="M0 0 C0.66 0 1.32 0 2 0 C1.25 6.75 1.25 6.75 -1 9 C-1.99 8.67 -2.98 8.34 -4 8 C-2.68 5.36 -1.36 2.72 0 0 Z " fill="#CD9D7D" transform="translate(294,170)"/>
<path d="M0 0 C0.33 0.99 0.66 1.98 1 3 C0.67 3.33 0.34 3.66 0 4 C0.08984301 5.85772162 0.24611861 7.71247985 0.4375 9.5625 C0.53933594 10.57441406 0.64117187 11.58632812 0.74609375 12.62890625 C0.82988281 13.41136719 0.91367188 14.19382813 1 15 C0.34 15 -0.32 15 -1 15 C-1.07347656 14.09507812 -1.07347656 14.09507812 -1.1484375 13.171875 C-1.22320312 12.37265625 -1.29796875 11.5734375 -1.375 10.75 C-1.44460937 9.96109375 -1.51421875 9.1721875 -1.5859375 8.359375 C-2.01507113 5.914123 -2.78600638 4.15163097 -4 2 C-2.68 2 -1.36 2 0 2 C0 1.34 0 0.68 0 0 Z " fill="#9E876F" transform="translate(138,137)"/>
<path d="M0 0 C1.32 0 2.64 0 4 0 C4 0.66 4 1.32 4 2 C4.7425 2.2475 5.485 2.495 6.25 2.75 C9.20124062 4.09147301 10.84814974 5.60905526 13 8 C8.80639551 7.32902328 5.59665648 5.1441606 2 3 C2 2.34 2 1.68 2 1 C1.34 0.67 0.68 0.34 0 0 Z " fill="#785F51" transform="translate(248,131)"/>
<path d="M0 0 C0 0.66 0 1.32 0 2 C0.66 2.66 1.32 3.32 2 4 C0.35333797 3.8864371 -1.29236082 3.75882619 -2.9375 3.625 C-3.85402344 3.55539063 -4.77054688 3.48578125 -5.71484375 3.4140625 C-6.84599609 3.20910156 -6.84599609 3.20910156 -8 3 C-8.33 2.34 -8.66 1.68 -9 1 C-6.04335481 -0.4783226 -3.25770263 -0.06032783 0 0 Z " fill="#453B34" transform="translate(184,118)"/>
<path d="M0 0 C3.875 0.875 3.875 0.875 5 2 C5.04063832 3.66617115 5.042721 5.33388095 5 7 C4.34 6.01 3.68 5.02 3 4 C1.68 4.33 0.36 4.66 -1 5 C-1 2 -1 2 0 0 Z " fill="#C4A886" transform="translate(195,116)"/>
<path d="M0 0 C4.29 0 8.58 0 13 0 C13 0.33 13 0.66 13 1 C11.35 1 9.7 1 8 1 C8 1.66 8 2.32 8 3 C5.36 2.67 2.72 2.34 0 2 C0 1.34 0 0.68 0 0 Z " fill="#887964" transform="translate(159,114)"/>
<path d="M0 0 C0.66 0.66 1.32 1.32 2 2 C0.37536158 2.05395478 -1.24978541 2.09277195 -2.875 2.125 C-3.77992188 2.14820312 -4.68484375 2.17140625 -5.6171875 2.1953125 C-8 2 -8 2 -10 0 C-6.4195345 -1.2393919 -3.65498696 -0.87401862 0 0 Z " fill="#A7957D" transform="translate(184,112)"/>
<path d="M0 0 C4.5 4.5 4.5 4.5 6 8 C5.01 9.32 4.02 10.64 3 12 C2.01 8.04 1.02 4.08 0 0 Z " fill="#BEB7A9" transform="translate(150,230)"/>
<path d="M0 0 C3.71599191 -0.20086443 4.77208445 -0.1519437 8 2 C8 2.66 8 3.32 8 4 C5.69 3.34 3.38 2.68 1 2 C1 2.66 1 3.32 1 4 C0.01 4 -0.98 4 -2 4 C-1.34 2.68 -0.68 1.36 0 0 Z " fill="#A07456" transform="translate(194,174)"/>
<path d="M0 0 C3.3 0 6.6 0 10 0 C10 0.66 10 1.32 10 2 C6.7 2.33 3.4 2.66 0 3 C0 2.01 0 1.02 0 0 Z " fill="#F2E7DD" transform="translate(209,170)"/>
<path d="M0 0 C0 0.99 0 1.98 0 3 C-3.3 3 -6.6 3 -10 3 C-10.33 3.99 -10.66 4.98 -11 6 C-11 4.68 -11 3.36 -11 2 C-3.375 0 -3.375 0 0 0 Z " fill="#EFDECF" transform="translate(219,167)"/>
<path d="M0 0 C-2.96687001 1.64826111 -5.65626525 2.44271087 -9 3 C-9.33 2.01 -9.66 1.02 -10 0 C-6.30581799 -1.231394 -3.7943739 -0.64432764 0 0 Z " fill="#C09E82" transform="translate(175,129)"/>
<path d="M0 0 C1.32 0.66 2.64 1.32 4 2 C4 2.66 4 3.32 4 4 C2.04196493 4.05389087 0.08351091 4.09274217 -1.875 4.125 C-2.96554688 4.14820312 -4.05609375 4.17140625 -5.1796875 4.1953125 C-8 4 -8 4 -10 2 C-6.7 2.33 -3.4 2.66 0 3 C0 2.01 0 1.02 0 0 Z " fill="#6D5747" transform="translate(186,119)"/>
<path d="M0 0 C0.33 0.66 0.66 1.32 1 2 C-0.62580966 1.88601335 -2.25067157 1.75844341 -3.875 1.625 C-4.77992188 1.55539063 -5.68484375 1.48578125 -6.6171875 1.4140625 C-9 1 -9 1 -11 -1 C-3.375 -2.46634615 -3.375 -2.46634615 0 0 Z " fill="#937F6B" transform="translate(269,120)"/>
<path d="M0 0 C-2 2 -2 2 -4.8203125 2.1953125 C-5.91085938 2.17210937 -7.00140625 2.14890625 -8.125 2.125 C-9.22070312 2.10695313 -10.31640625 2.08890625 -11.4453125 2.0703125 C-12.28835937 2.04710937 -13.13140625 2.02390625 -14 2 C-14 1.67 -14 1.34 -14 1 C-12.41913952 0.63495397 -10.83516093 0.28339494 -9.25 -0.0625 C-8.36828125 -0.25972656 -7.4865625 -0.45695312 -6.578125 -0.66015625 C-4.01320972 -0.99825872 -2.42908361 -0.81158635 0 0 Z " fill="#DCC4A4" transform="translate(219,294)"/>
<path d="M0 0 C0.33 0.66 0.66 1.32 1 2 C3.64 2 6.28 2 9 2 C8.67 2.66 8.34 3.32 8 4 C7.236875 3.938125 6.47375 3.87625 5.6875 3.8125 C2.95474688 3.74101915 2.95474688 3.74101915 1.1875 5.5 C0.795625 5.995 0.40375 6.49 0 7 C-0.93423645 3.98968256 -1.04449911 3.13349732 0 0 Z " fill="#C39E7A" transform="translate(191,171)"/>
<path d="M0 0 C-2.9432656 1.96217707 -5.75978738 3.58240698 -9 5 C-9.99 4.67 -10.98 4.34 -12 4 C-8.47224824 -0.05691453 -5.19281521 -0.14424487 0 0 Z " fill="#A17D60" transform="translate(237,128)"/>
<path d="M0 0 C-3.40401948 1.13732426 -5.77456664 0.83989957 -9.25 0.0625 C-10.14203125 -0.13214844 -11.0340625 -0.32679687 -11.953125 -0.52734375 C-12.62859375 -0.68332031 -13.3040625 -0.83929688 -14 -1 C-14 -1.33 -14 -1.66 -14 -2 C-8.0819503 -3.32854177 -5.22270869 -2.66464729 0 0 Z " fill="#99876F" transform="translate(176,121)"/>
<path d="M0 0 C-0.33 0.66 -0.66 1.32 -1 2 C-3.32156597 2.40729228 -5.6568787 2.74438677 -8 3 C-8 3.66 -8 4.32 -8 5 C-9.32 5.33 -10.64 5.66 -12 6 C-11.67 5.34 -11.34 4.68 -11 4 C-10.34 4 -9.68 4 -9 4 C-9 3.34 -9 2.68 -9 2 C-5.5647952 -0.29013653 -4.014669 -0.17842973 0 0 Z " fill="#DEC8AB" transform="translate(230,111)"/>
<path d="M0 0 C5.07612318 -0.61528766 7.82982006 1.38341651 12 4 C10 5 10 5 7.87109375 4.51171875 C7.06800781 4.23972656 6.26492187 3.96773438 5.4375 3.6875 C4.63183594 3.42324219 3.82617188 3.15898437 2.99609375 2.88671875 C1 2 1 2 0 0 Z " fill="#E9E3D4" transform="translate(165,315)"/>
<path d="M0 0 C1.4589426 0.47730838 2.91713496 0.95691042 4.375 1.4375 C5.18710937 1.70433594 5.99921875 1.97117187 6.8359375 2.24609375 C9 3 9 3 11 4 C11 4.66 11 5.32 11 6 C9.53775201 5.57576756 8.08026588 5.13509755 6.625 4.6875 C5.81289063 4.44386719 5.00078125 4.20023437 4.1640625 3.94921875 C2 3 2 3 0 0 Z " fill="#59595C" transform="translate(399,282)"/>
<path d="M0 0 C0.99 0.495 0.99 0.495 2 1 C2.6328125 3.06640625 2.6328125 3.06640625 3.125 5.5625 C3.29257813 6.38878906 3.46015625 7.21507812 3.6328125 8.06640625 C3.75398437 8.70449219 3.87515625 9.34257812 4 10 C3.34 10 2.68 10 2 10 C2 9.01 2 8.02 2 7 C1.34 7 0.68 7 0 7 C0 4.69 0 2.38 0 0 Z " fill="#B07958" transform="translate(130,172)"/>
<path d="M0 0 C3.3 0.33 6.6 0.66 10 1 C8 3 8 3 4.375 3.125 C3.26125 3.08375 2.1475 3.0425 1 3 C0.67 2.01 0.34 1.02 0 0 Z " fill="#CBAF97" transform="translate(241,127)"/>
<path d="M0 0 C1.32 0.33 2.64 0.66 4 1 C4 1.99 4 2.98 4 4 C0.04 3.67 -3.92 3.34 -8 3 C-8 2.67 -8 2.34 -8 2 C-5.36 2 -2.72 2 0 2 C0 1.34 0 0.68 0 0 Z " fill="#95795D" transform="translate(190,121)"/>
<path d="M0 0 C0.66 0 1.32 0 2 0 C1.34 2.97 0.68 5.94 0 9 C-0.99 8.01 -1.98 7.02 -3 6 C-1.125 1.125 -1.125 1.125 0 0 Z " fill="#9A988C" transform="translate(149,56)"/>
<path d="M0 0 C0.33 0 0.66 0 1 0 C1 2.31 1 4.62 1 7 C0.01 7 -0.98 7 -2 7 C-2.66 5.68 -3.32 4.36 -4 3 C-2.68 2.67 -1.36 2.34 0 2 C0 1.34 0 0.68 0 0 Z " fill="#DBCEBA" transform="translate(276,281)"/>
<path d="M0 0 C4.29 0 8.58 0 13 0 C13 0.33 13 0.66 13 1 C11.3603125 1.2165625 11.3603125 1.2165625 9.6875 1.4375 C6.06877013 1.88288104 6.06877013 1.88288104 3 3 C2.01 2.01 1.02 1.02 0 0 Z " fill="#BA9081" transform="translate(180,204)"/>
<path d="M0 0 C2 2 2 2 3 5 C2.0625 8.1875 2.0625 8.1875 1 11 C0.67 11 0.34 11 0 11 C0 7.37 0 3.74 0 0 Z " fill="#C3AF99" transform="translate(142,128)"/>
<path d="M0 0 C0.66 0 1.32 0 2 0 C2.98120464 3.05263664 2.98120464 4.94736336 2 8 C0.68 7.67 -0.64 7.34 -2 7 C-1.67 6.21625 -1.34 5.4325 -1 4.625 C0.11866511 2.15667503 0.11866511 2.15667503 0 0 Z " fill="#AA957F" transform="translate(269,120)"/>
<path d="M0 0 C0.928125 0.20625 1.85625 0.4125 2.8125 0.625 C2.8125 1.285 2.8125 1.945 2.8125 2.625 C-1.6425 3.12 -1.6425 3.12 -6.1875 3.625 C-6.1875 2.965 -6.1875 2.305 -6.1875 1.625 C-3.1875 -0.375 -3.1875 -0.375 0 0 Z " fill="#C0A084" transform="translate(187.1875,124.375)"/>
<path d="M0 0 C1.65 0 3.3 0 5 0 C5.33 1.32 5.66 2.64 6 4 C4.02 4.33 2.04 4.66 0 5 C0 3.35 0 1.7 0 0 Z " fill="#75746E" transform="translate(280,71)"/>
<path d="M0 0 C1.65 0.33 3.3 0.66 5 1 C5 1.99 5 2.98 5 4 C2.69 4.66 0.38 5.32 -2 6 C-1.67 5.34 -1.34 4.68 -1 4 C-0.01 4 0.98 4 2 4 C2 3.01 2 2.02 2 1 C1.34 0.67 0.68 0.34 0 0 Z " fill="#D2A399" transform="translate(220,208)"/>
<path d="M0 0 C2.64 0 5.28 0 8 0 C7.67 0.99 7.34 1.98 7 3 C4.4375 4.1875 4.4375 4.1875 2 5 C1.34 3.35 0.68 1.7 0 0 Z " fill="#BDA594" transform="translate(174,138)"/>
<path d="M0 0 C1.17571451 3.67410785 1.07366746 7.16929183 1 11 C0.34 11 -0.32 11 -1 11 C-1.33 8.03 -1.66 5.06 -2 2 C-1.34 2 -0.68 2 0 2 C0 1.34 0 0.68 0 0 Z " fill="#8D9797" transform="translate(289,128)"/>
<path d="M0 0 C0.99 0.495 0.99 0.495 2 1 C2.40729228 3.32156597 2.74438677 5.6568787 3 8 C2.01 8.495 2.01 8.495 1 9 C0.67 6.03 0.34 3.06 0 0 Z " fill="#D5B58D" transform="translate(203,125)"/>
<path d="M0 0 C2.64 0 5.28 0 8 0 C8.33 1.32 8.66 2.64 9 4 C6 3 6 3 5 2 C3.33985384 1.63557767 1.67293936 1.30027117 0 1 C0 0.67 0 0.34 0 0 Z " fill="#534B42" transform="translate(177,117)"/>
<path d="M0 0 C0.66 0 1.32 0 2 0 C2.125 3.375 2.125 3.375 2 7 C1.34 7.66 0.68 8.32 0 9 C-0.84454356 5.62182575 -1.10844919 3.32534757 0 0 Z " fill="#4C5352" transform="translate(289,99)"/>
<path d="M0 0 C0.33 0 0.66 0 1 0 C1.28571429 7.42857143 1.28571429 7.42857143 -1 11 C-2.25 3.375 -2.25 3.375 0 0 Z " fill="#CCA280" transform="translate(134,169)"/>
<path d="M0 0 C1.32 0.33 2.64 0.66 4 1 C4 1.99 4 2.98 4 4 C2.02 4.99 2.02 4.99 0 6 C0 4.02 0 2.04 0 0 Z " fill="#B77854" transform="translate(127,142)"/>
<path d="M0 0 C-0.33 0.99 -0.66 1.98 -1 3 C-3.64 3 -6.28 3 -9 3 C-6.38997624 -0.48003168 -4.1689578 -0.27793052 0 0 Z " fill="#9C755A" transform="translate(166,137)"/>
<path d="M0 0 C0 0.66 0 1.32 0 2 C0.66 2.33 1.32 2.66 2 3 C-0.3125 3.625 -0.3125 3.625 -3 4 C-3.99 3.34 -4.98 2.68 -6 2 C-3 0 -3 0 0 0 Z " fill="#AF8E6F" transform="translate(166,130)"/>
<path d="M0 0 C2.475 0.495 2.475 0.495 5 1 C4.67 1.99 4.34 2.98 4 4 C3.34 4 2.68 4 2 4 C1.34 4.99 0.68 5.98 0 7 C0 4.69 0 2.38 0 0 Z " fill="#B59F92" transform="translate(184,128)"/>
<path d="M0 0 C0.33 0.99 0.66 1.98 1 3 C-2.3 3.66 -5.6 4.32 -9 5 C-9 4.34 -9 3.68 -9 3 C-2.25 0 -2.25 0 0 0 Z " fill="#BD9D83" transform="translate(241,127)"/>
<path d="M0 0 C0.99 0 1.98 0 3 0 C3 0.99 3 1.98 3 3 C3.99 3.33 4.98 3.66 6 4 C3.36 4 0.72 4 -2 4 C-1.34 3.67 -0.68 3.34 0 3 C0 2.01 0 1.02 0 0 Z " fill="#5E4E40" transform="translate(234,119)"/>
<path d="M0 0 C0.99 0 1.98 0 3 0 C3 0.99 3 1.98 3 3 C4.32 3 5.64 3 7 3 C6.67 3.99 6.34 4.98 6 6 C3.5625 5.25 3.5625 5.25 1 4 C0.1875 1.875 0.1875 1.875 0 0 Z " fill="#DFC7A9" transform="translate(196,111)"/>
</svg>
